<svg width="97" height="10" viewBox="0 0 97 10" fill="none" xmlns="http://www.w3.org/2000/svg">
<path d="M5.26705 3C5.24432 2.71591 5.13778 2.49432 4.94744 2.33523C4.75994 2.17614 4.47443 2.09659 4.09091 2.09659C3.84659 2.09659 3.64631 2.12642 3.49006 2.18608C3.33665 2.2429 3.22301 2.32102 3.14915 2.42045C3.07528 2.51989 3.03693 2.63352 3.03409 2.76136C3.02841 2.86648 3.04688 2.96165 3.08949 3.04688C3.13494 3.12926 3.20597 3.20455 3.30256 3.27273C3.39915 3.33807 3.52273 3.39773 3.6733 3.4517C3.82386 3.50568 4.00284 3.55398 4.21023 3.59659L4.92614 3.75C5.40909 3.85227 5.82244 3.98722 6.16619 4.15483C6.50994 4.32244 6.79119 4.51989 7.00994 4.74716C7.22869 4.97159 7.3892 5.22443 7.49148 5.50568C7.59659 5.78693 7.65057 6.09375 7.65341 6.42614C7.65057 7 7.5071 7.4858 7.22301 7.88352C6.93892 8.28125 6.53267 8.58381 6.00426 8.79119C5.47869 8.99858 4.84659 9.10227 4.10795 9.10227C3.34943 9.10227 2.6875 8.99006 2.12216 8.76562C1.55966 8.54119 1.12216 8.19602 0.809659 7.73011C0.5 7.26136 0.34375 6.66193 0.340909 5.93182H2.59091C2.60511 6.19886 2.67188 6.4233 2.79119 6.60511C2.91051 6.78693 3.07813 6.92472 3.29403 7.01847C3.51278 7.11222 3.77273 7.15909 4.07386 7.15909C4.3267 7.15909 4.53835 7.12784 4.70881 7.06534C4.87926 7.00284 5.00852 6.91619 5.09659 6.8054C5.18466 6.6946 5.23011 6.56818 5.23295 6.42614C5.23011 6.29261 5.18608 6.17614 5.10085 6.0767C5.01847 5.97443 4.8821 5.88352 4.69176 5.80398C4.50142 5.72159 4.24432 5.64489 3.92045 5.57386L3.05114 5.38636C2.27841 5.21875 1.66903 4.93892 1.22301 4.54688C0.77983 4.15199 0.559659 3.61364 0.5625 2.93182C0.559659 2.37784 0.707386 1.89347 1.00568 1.47869C1.30682 1.06108 1.72301 0.735795 2.25426 0.502841C2.78835 0.269886 3.40057 0.153409 4.09091 0.153409C4.79545 0.153409 5.40483 0.271307 5.91903 0.507102C6.43324 0.742898 6.82955 1.07528 7.10795 1.50426C7.3892 1.9304 7.53125 2.42898 7.53409 3H5.26705ZM13.7195 0.272727H16.0888V5.86364C16.0888 6.52841 15.9297 7.10369 15.6115 7.58949C15.2962 8.07244 14.8558 8.44602 14.2905 8.71023C13.7251 8.97159 13.0689 9.10227 12.3217 9.10227C11.5689 9.10227 10.9098 8.97159 10.3445 8.71023C9.77912 8.44602 9.33878 8.07244 9.02344 7.58949C8.71094 7.10369 8.55469 6.52841 8.55469 5.86364V0.272727H10.924V5.65909C10.924 5.92898 10.9837 6.17045 11.103 6.38352C11.2223 6.59375 11.3871 6.75852 11.5973 6.87784C11.8104 6.99716 12.0518 7.05682 12.3217 7.05682C12.5945 7.05682 12.8359 6.99716 13.0462 6.87784C13.2564 6.75852 13.4212 6.59375 13.5405 6.38352C13.6598 6.17045 13.7195 5.92898 13.7195 5.65909V0.272727ZM19.4819 9H16.9251L19.8058 0.272727H23.0444L25.9251 9H23.3683L21.4592 2.67614H21.391L19.4819 9ZM19.0046 5.55682H23.8114V7.32955H19.0046V5.55682ZM29.1562 9V0.272727H31.5256V7.09091H35.054V9H29.1562ZM44.1264 4.63636C44.1264 5.60795 43.9375 6.42756 43.5597 7.09517C43.1818 7.75994 42.6719 8.2642 42.0298 8.60795C41.3878 8.94886 40.6719 9.11932 39.8821 9.11932C39.0866 9.11932 38.3679 8.94744 37.7259 8.60369C37.0866 8.2571 36.5781 7.75142 36.2003 7.08665C35.8253 6.41903 35.6378 5.60227 35.6378 4.63636C35.6378 3.66477 35.8253 2.84659 36.2003 2.18182C36.5781 1.5142 37.0866 1.00994 37.7259 0.669034C38.3679 0.325284 39.0866 0.153409 39.8821 0.153409C40.6719 0.153409 41.3878 0.325284 42.0298 0.669034C42.6719 1.00994 43.1818 1.5142 43.5597 2.18182C43.9375 2.84659 44.1264 3.66477 44.1264 4.63636ZM41.6889 4.63636C41.6889 4.11364 41.6193 3.6733 41.4801 3.31534C41.3438 2.95455 41.1406 2.68182 40.8707 2.49716C40.6037 2.30966 40.2741 2.21591 39.8821 2.21591C39.4901 2.21591 39.1591 2.30966 38.8892 2.49716C38.6222 2.68182 38.419 2.95455 38.2798 3.31534C38.1435 3.6733 38.0753 4.11364 38.0753 4.63636C38.0753 5.15909 38.1435 5.60085 38.2798 5.96165C38.419 6.3196 38.6222 6.59233 38.8892 6.77983C39.1591 6.96449 39.4901 7.05682 39.8821 7.05682C40.2741 7.05682 40.6037 6.96449 40.8707 6.77983C41.1406 6.59233 41.3438 6.3196 41.4801 5.96165C41.6193 5.60085 41.6889 5.15909 41.6889 4.63636ZM50.8903 3.15341C50.8533 3.00284 50.7951 2.87074 50.7156 2.7571C50.636 2.64062 50.5366 2.54261 50.4173 2.46307C50.3008 2.38068 50.1644 2.3196 50.0082 2.27983C49.8548 2.23722 49.6857 2.21591 49.5011 2.21591C49.1033 2.21591 48.7638 2.31108 48.4826 2.50142C48.2042 2.69176 47.9911 2.96591 47.8434 3.32386C47.6985 3.68182 47.6261 4.11364 47.6261 4.61932C47.6261 5.13068 47.6957 5.56818 47.8349 5.93182C47.9741 6.29545 48.1815 6.57386 48.457 6.76705C48.7326 6.96023 49.0749 7.05682 49.484 7.05682C49.8448 7.05682 50.1445 7.00426 50.3832 6.89915C50.6246 6.79403 50.805 6.64489 50.9244 6.4517C51.0437 6.25852 51.1033 6.03125 51.1033 5.76989L51.5124 5.8125H49.5181V4.125H53.3874V5.33523C53.3874 6.13068 53.2184 6.81108 52.8803 7.37642C52.5451 7.93892 52.082 8.37074 51.4911 8.67188C50.9031 8.97017 50.2283 9.11932 49.467 9.11932C48.6175 9.11932 47.8718 8.93892 47.2298 8.57812C46.5877 8.21733 46.0863 7.70312 45.7255 7.03551C45.3675 6.3679 45.1886 5.57386 45.1886 4.65341C45.1886 3.93182 45.2979 3.29261 45.5167 2.7358C45.7383 2.17898 46.0451 1.70881 46.4371 1.32528C46.8292 0.93892 47.2823 0.647727 47.7965 0.451704C48.3107 0.252841 48.8619 0.153409 49.4499 0.153409C49.967 0.153409 50.4471 0.227273 50.8903 0.375C51.3363 0.519886 51.7298 0.727272 52.0707 0.997159C52.4144 1.2642 52.6914 1.58097 52.9016 1.94744C53.1119 2.31392 53.2397 2.71591 53.2852 3.15341H50.8903ZM62.9467 4.63636C62.9467 5.60795 62.7578 6.42756 62.38 7.09517C62.0021 7.75994 61.4922 8.2642 60.8501 8.60795C60.2081 8.94886 59.4922 9.11932 58.7024 9.11932C57.907 9.11932 57.1882 8.94744 56.5462 8.60369C55.907 8.2571 55.3984 7.75142 55.0206 7.08665C54.6456 6.41903 54.4581 5.60227 54.4581 4.63636C54.4581 3.66477 54.6456 2.84659 55.0206 2.18182C55.3984 1.5142 55.907 1.00994 56.5462 0.669034C57.1882 0.325284 57.907 0.153409 58.7024 0.153409C59.4922 0.153409 60.2081 0.325284 60.8501 0.669034C61.4922 1.00994 62.0021 1.5142 62.38 2.18182C62.7578 2.84659 62.9467 3.66477 62.9467 4.63636ZM60.5092 4.63636C60.5092 4.11364 60.4396 3.6733 60.3004 3.31534C60.1641 2.95455 59.9609 2.68182 59.6911 2.49716C59.424 2.30966 59.0945 2.21591 58.7024 2.21591C58.3104 2.21591 57.9794 2.30966 57.7095 2.49716C57.4425 2.68182 57.2393 2.95455 57.1001 3.31534C56.9638 3.6733 56.8956 4.11364 56.8956 4.63636C56.8956 5.15909 56.9638 5.60085 57.1001 5.96165C57.2393 6.3196 57.4425 6.59233 57.7095 6.77983C57.9794 6.96449 58.3104 7.05682 58.7024 7.05682C59.0945 7.05682 59.424 6.96449 59.6911 6.77983C59.9609 6.59233 60.1641 6.3196 60.3004 5.96165C60.4396 5.60085 60.5092 5.15909 60.5092 4.63636ZM68.7006 9H66.1438L69.0245 0.272727H72.2631L75.1438 9H72.587L70.6779 2.67614H70.6097L68.7006 9ZM68.2234 5.55682H73.0302V7.32955H68.2234V5.55682ZM78.9492 5.76136H80.7901L81.4549 6.59659L82.5799 7.875L84.0458 9.64773H81.9492L80.9094 8.4375L80.2106 7.43182L78.9492 5.76136ZM84.0288 4.63636C84.0288 5.60795 83.8398 6.42756 83.462 7.09517C83.0842 7.75994 82.5742 8.2642 81.9322 8.60795C81.2901 8.94886 80.5742 9.11932 79.7844 9.11932C78.989 9.11932 78.2702 8.94744 77.6282 8.60369C76.989 8.2571 76.4805 7.75142 76.1026 7.08665C75.7276 6.41903 75.5401 5.60227 75.5401 4.63636C75.5401 3.66477 75.7276 2.84659 76.1026 2.18182C76.4805 1.5142 76.989 1.00994 77.6282 0.669034C78.2702 0.325284 78.989 0.153409 79.7844 0.153409C80.5742 0.153409 81.2901 0.325284 81.9322 0.669034C82.5742 1.00994 83.0842 1.5142 83.462 2.18182C83.8398 2.84659 84.0288 3.66477 84.0288 4.63636ZM81.5913 4.63636C81.5913 4.11364 81.5217 3.6733 81.3825 3.31534C81.2461 2.95455 81.043 2.68182 80.7731 2.49716C80.506 2.30966 80.1765 2.21591 79.7844 2.21591C79.3924 2.21591 79.0614 2.30966 78.7915 2.49716C78.5245 2.68182 78.3214 2.95455 78.1822 3.31534C78.0458 3.6733 77.9776 4.11364 77.9776 4.63636C77.9776 5.15909 78.0458 5.60085 78.1822 5.96165C78.3214 6.3196 78.5245 6.59233 78.7915 6.77983C79.0614 6.96449 79.3924 7.05682 79.7844 7.05682C80.1765 7.05682 80.506 6.96449 80.7731 6.77983C81.043 6.59233 81.2461 6.3196 81.3825 5.96165C81.5217 5.60085 81.5913 5.15909 81.5913 4.63636ZM90.3015 0.272727H92.6708V5.86364C92.6708 6.52841 92.5117 7.10369 92.1935 7.58949C91.8782 8.07244 91.4379 8.44602 90.8725 8.71023C90.3072 8.97159 89.6509 9.10227 88.9038 9.10227C88.1509 9.10227 87.4918 8.97159 86.9265 8.71023C86.3612 8.44602 85.9208 8.07244 85.6055 7.58949C85.293 7.10369 85.1367 6.52841 85.1367 5.86364V0.272727H87.506V5.65909C87.506 5.92898 87.5657 6.17045 87.685 6.38352C87.8043 6.59375 87.9691 6.75852 88.1793 6.87784C88.3924 6.99716 88.6339 7.05682 88.9038 7.05682C89.1765 7.05682 89.418 6.99716 89.6282 6.87784C89.8384 6.75852 90.0032 6.59375 90.1225 6.38352C90.2418 6.17045 90.3015 5.92898 90.3015 5.65909V0.272727ZM96.1662 0.272727V9H93.7969V0.272727H96.1662Z" fill="black"/>
</svg>
