<svg width="484" height="221" viewBox="0 0 484 221" fill="none" xmlns="http://www.w3.org/2000/svg">
<g clip-path="url(#clip0_187_127)">
<mask id="path-1-outside-1_187_127" maskUnits="userSpaceOnUse" x="27" y="122" width="241" height="92" fill="black">
<rect fill="white" x="27" y="122" width="241" height="92"/>
<path d="M49.785 213.25C43.4517 212.542 38.3058 210.417 34.3475 206.875C30.0142 203.042 27.8475 198.083 27.8475 192C27.8475 185.917 30.1808 181.875 34.8475 179.875C36.3058 179.25 37.8475 178.938 39.4725 178.938C41.0975 178.938 42.535 179.167 43.785 179.625C45.0767 180.042 46.2017 180.667 47.16 181.5C49.2017 183.292 50.2225 185.792 50.2225 189C50.2225 192.75 48.2017 195.938 44.16 198.562C43.035 199.271 41.9725 199.812 40.9725 200.188C41.2225 201.271 42.0975 202.333 43.5975 203.375C45.1392 204.375 47.2017 205 49.785 205.25V213.25ZM55.3475 205.25C60.5142 204.208 63.0975 200.812 63.0975 195.062V135.188C63.0975 132.521 62.1183 130.75 60.16 129.875C59.285 129.5 58.2225 129.188 56.9725 128.938C55.7642 128.688 54.4725 128.333 53.0975 127.875V123.188H93.0975V127.875C91.8892 128.333 90.7225 128.688 89.5975 128.938C88.4725 129.188 87.4933 129.5 86.66 129.875C84.785 130.75 83.8475 132.521 83.8475 135.188V188.25C83.8475 200.792 78.3683 208.583 67.41 211.625C63.8683 212.583 59.8475 213.125 55.3475 213.25V205.25ZM111.658 138.25C111.658 134.833 111.324 132.667 110.658 131.75C110.033 130.792 109.428 130.188 108.845 129.938C108.303 129.688 107.699 129.479 107.033 129.312C106.366 129.146 105.658 128.979 104.908 128.812C104.199 128.646 103.47 128.333 102.72 127.875V123.188H141.158V127.875C140.408 128.333 139.678 128.646 138.97 128.812C138.262 128.979 137.574 129.146 136.908 129.312C136.241 129.479 135.637 129.688 135.095 129.938C134.553 130.188 134.074 130.625 133.658 131.25C132.783 132.5 132.345 134.833 132.345 138.25V197C132.345 200.458 132.658 202.667 133.283 203.625C133.949 204.542 134.553 205.125 135.095 205.375C135.678 205.625 136.303 205.833 136.97 206C138.97 206.417 140.366 206.875 141.158 207.375V212H102.72V207.375C103.845 206.917 104.928 206.583 105.97 206.375C107.053 206.125 108.012 205.792 108.845 205.375C110.72 204.458 111.658 202.708 111.658 200.125V138.25ZM189.155 205.938C189.405 205.979 189.676 206 189.968 206C190.259 206 190.551 206 190.843 206C200.259 206 206.613 202.458 209.905 195.375C210.78 193.458 211.53 191.583 212.155 189.75C212.822 187.875 213.468 186.146 214.093 184.562C214.759 182.979 215.634 181.75 216.718 180.875H220.968V212H189.155V205.938ZM183.53 212H153.843V207.375C154.968 206.917 156.051 206.583 157.093 206.375C158.176 206.125 159.134 205.792 159.968 205.375C161.843 204.458 162.78 202.708 162.78 200.125V135.188C162.78 132.562 161.843 130.792 159.968 129.875C159.134 129.458 158.176 129.146 157.093 128.938C156.051 128.688 154.968 128.333 153.843 127.875V123.188H192.905V127.875C191.655 128.333 190.468 128.688 189.343 128.938C188.218 129.146 187.238 129.458 186.405 129.875C184.488 130.792 183.53 132.562 183.53 135.188V212ZM238.152 138.25C238.152 134.833 237.819 132.667 237.152 131.75C236.527 130.792 235.923 130.188 235.34 129.938C234.798 129.688 234.194 129.479 233.527 129.312C232.861 129.146 232.152 128.979 231.402 128.812C230.694 128.646 229.965 128.333 229.215 127.875V123.188H267.652V127.875C266.902 128.333 266.173 128.646 265.465 128.812C264.757 128.979 264.069 129.146 263.402 129.312C262.736 129.479 262.132 129.688 261.59 129.938C261.048 130.188 260.569 130.625 260.152 131.25C259.277 132.5 258.84 134.833 258.84 138.25V197C258.84 200.458 259.152 202.667 259.777 203.625C260.444 204.542 261.048 205.125 261.59 205.375C262.173 205.625 262.798 205.833 263.465 206C265.465 206.417 266.861 206.875 267.652 207.375V212H229.215V207.375C230.34 206.917 231.423 206.583 232.465 206.375C233.548 206.125 234.507 205.792 235.34 205.375C237.215 204.458 238.152 202.708 238.152 200.125V138.25Z"/>
</mask>
<path d="M49.785 213.25C43.4517 212.542 38.3058 210.417 34.3475 206.875C30.0142 203.042 27.8475 198.083 27.8475 192C27.8475 185.917 30.1808 181.875 34.8475 179.875C36.3058 179.25 37.8475 178.938 39.4725 178.938C41.0975 178.938 42.535 179.167 43.785 179.625C45.0767 180.042 46.2017 180.667 47.16 181.5C49.2017 183.292 50.2225 185.792 50.2225 189C50.2225 192.75 48.2017 195.938 44.16 198.562C43.035 199.271 41.9725 199.812 40.9725 200.188C41.2225 201.271 42.0975 202.333 43.5975 203.375C45.1392 204.375 47.2017 205 49.785 205.25V213.25ZM55.3475 205.25C60.5142 204.208 63.0975 200.812 63.0975 195.062V135.188C63.0975 132.521 62.1183 130.75 60.16 129.875C59.285 129.5 58.2225 129.188 56.9725 128.938C55.7642 128.688 54.4725 128.333 53.0975 127.875V123.188H93.0975V127.875C91.8892 128.333 90.7225 128.688 89.5975 128.938C88.4725 129.188 87.4933 129.5 86.66 129.875C84.785 130.75 83.8475 132.521 83.8475 135.188V188.25C83.8475 200.792 78.3683 208.583 67.41 211.625C63.8683 212.583 59.8475 213.125 55.3475 213.25V205.25ZM111.658 138.25C111.658 134.833 111.324 132.667 110.658 131.75C110.033 130.792 109.428 130.188 108.845 129.938C108.303 129.688 107.699 129.479 107.033 129.312C106.366 129.146 105.658 128.979 104.908 128.812C104.199 128.646 103.47 128.333 102.72 127.875V123.188H141.158V127.875C140.408 128.333 139.678 128.646 138.97 128.812C138.262 128.979 137.574 129.146 136.908 129.312C136.241 129.479 135.637 129.688 135.095 129.938C134.553 130.188 134.074 130.625 133.658 131.25C132.783 132.5 132.345 134.833 132.345 138.25V197C132.345 200.458 132.658 202.667 133.283 203.625C133.949 204.542 134.553 205.125 135.095 205.375C135.678 205.625 136.303 205.833 136.97 206C138.97 206.417 140.366 206.875 141.158 207.375V212H102.72V207.375C103.845 206.917 104.928 206.583 105.97 206.375C107.053 206.125 108.012 205.792 108.845 205.375C110.72 204.458 111.658 202.708 111.658 200.125V138.25ZM189.155 205.938C189.405 205.979 189.676 206 189.968 206C190.259 206 190.551 206 190.843 206C200.259 206 206.613 202.458 209.905 195.375C210.78 193.458 211.53 191.583 212.155 189.75C212.822 187.875 213.468 186.146 214.093 184.562C214.759 182.979 215.634 181.75 216.718 180.875H220.968V212H189.155V205.938ZM183.53 212H153.843V207.375C154.968 206.917 156.051 206.583 157.093 206.375C158.176 206.125 159.134 205.792 159.968 205.375C161.843 204.458 162.78 202.708 162.78 200.125V135.188C162.78 132.562 161.843 130.792 159.968 129.875C159.134 129.458 158.176 129.146 157.093 128.938C156.051 128.688 154.968 128.333 153.843 127.875V123.188H192.905V127.875C191.655 128.333 190.468 128.688 189.343 128.938C188.218 129.146 187.238 129.458 186.405 129.875C184.488 130.792 183.53 132.562 183.53 135.188V212ZM238.152 138.25C238.152 134.833 237.819 132.667 237.152 131.75C236.527 130.792 235.923 130.188 235.34 129.938C234.798 129.688 234.194 129.479 233.527 129.312C232.861 129.146 232.152 128.979 231.402 128.812C230.694 128.646 229.965 128.333 229.215 127.875V123.188H267.652V127.875C266.902 128.333 266.173 128.646 265.465 128.812C264.757 128.979 264.069 129.146 263.402 129.312C262.736 129.479 262.132 129.688 261.59 129.938C261.048 130.188 260.569 130.625 260.152 131.25C259.277 132.5 258.84 134.833 258.84 138.25V197C258.84 200.458 259.152 202.667 259.777 203.625C260.444 204.542 261.048 205.125 261.59 205.375C262.173 205.625 262.798 205.833 263.465 206C265.465 206.417 266.861 206.875 267.652 207.375V212H229.215V207.375C230.34 206.917 231.423 206.583 232.465 206.375C233.548 206.125 234.507 205.792 235.34 205.375C237.215 204.458 238.152 202.708 238.152 200.125V138.25Z" fill="url(#paint0_linear_187_127)"/>
<path d="M49.785 213.25L49.7628 213.449L49.985 213.474V213.25H49.785ZM34.3475 206.875L34.4809 206.726L34.48 206.725L34.3475 206.875ZM43.785 179.625L43.7161 179.813L43.7236 179.815L43.785 179.625ZM47.16 181.5L47.2919 181.35L47.2912 181.349L47.16 181.5ZM44.16 198.562L44.2666 198.732L44.2689 198.73L44.16 198.562ZM40.9725 200.188L40.9023 200L40.7382 200.062L40.7776 200.232L40.9725 200.188ZM43.5975 203.375L43.4834 203.539L43.4887 203.543L43.5975 203.375ZM49.785 205.25H49.985V205.068L49.8043 205.051L49.785 205.25ZM55.3475 205.25L55.308 205.054L55.1475 205.086V205.25H55.3475ZM60.16 129.875L60.2416 129.692L60.2388 129.691L60.16 129.875ZM56.9725 128.938L56.932 129.133L56.9333 129.134L56.9725 128.938ZM53.0975 127.875H52.8975V128.019L53.0343 128.065L53.0975 127.875ZM53.0975 123.188V122.987H52.8975V123.188H53.0975ZM93.0975 123.188H93.2975V122.987H93.0975V123.188ZM93.0975 127.875L93.1684 128.062L93.2975 128.013V127.875H93.0975ZM86.66 129.875L86.5779 129.693L86.5754 129.694L86.66 129.875ZM67.41 211.625L67.4622 211.818L67.4635 211.818L67.41 211.625ZM55.3475 213.25H55.1475V213.456L55.3531 213.45L55.3475 213.25ZM49.8072 213.051C43.5068 212.347 38.4024 210.235 34.4809 206.726L34.2141 207.024C38.2092 210.599 43.3966 212.737 49.7628 213.449L49.8072 213.051ZM34.48 206.725C30.192 202.932 28.0475 198.029 28.0475 192H27.6475C27.6475 198.137 29.8363 203.151 34.215 207.025L34.48 206.725ZM28.0475 192C28.0475 188.983 28.6261 186.489 29.7707 184.506C30.9139 182.526 32.629 181.043 34.9263 180.059L34.7687 179.691C32.3994 180.707 30.6145 182.245 29.4243 184.306C28.2355 186.365 27.6475 188.934 27.6475 192H28.0475ZM34.9263 180.059C36.3591 179.445 37.8739 179.138 39.4725 179.138V178.737C37.8211 178.737 36.2526 179.055 34.7687 179.691L34.9263 180.059ZM39.4725 179.138C41.079 179.138 42.4925 179.364 43.7162 179.813L43.8539 179.437C42.5775 178.969 41.116 178.737 39.4725 178.737V179.138ZM43.7236 179.815C44.9914 180.224 46.0922 180.837 47.0288 181.651L47.2912 181.349C46.3112 180.497 45.162 179.859 43.8464 179.435L43.7236 179.815ZM47.0281 181.65C49.0186 183.397 50.0225 185.838 50.0225 189H50.4225C50.4225 185.746 49.3848 183.186 47.2919 181.35L47.0281 181.65ZM50.0225 189C50.0225 192.663 48.0542 195.795 44.0511 198.395L44.2689 198.73C48.3491 196.08 50.4225 192.837 50.4225 189H50.0225ZM44.0534 198.393C42.9373 199.096 41.8869 199.631 40.9023 200L41.0427 200.375C42.0581 199.994 43.1328 199.446 44.2666 198.732L44.0534 198.393ZM40.7776 200.232C41.0441 201.387 41.9672 202.486 43.4834 203.539L43.7116 203.211C42.2278 202.18 41.4009 201.155 41.1674 200.143L40.7776 200.232ZM43.4887 203.543C45.066 204.566 47.1628 205.197 49.7657 205.449L49.8043 205.051C47.2405 204.803 45.2123 204.184 43.7063 203.207L43.4887 203.543ZM49.585 205.25V213.25H49.985V205.25H49.585ZM55.387 205.446C58.0064 204.918 59.9916 203.788 61.3192 202.043C62.6452 200.3 63.2975 197.966 63.2975 195.062H62.8975C62.8975 197.909 62.2581 200.148 61.0008 201.801C59.7451 203.451 57.8553 204.54 55.308 205.054L55.387 205.446ZM63.2975 195.062V135.188H62.8975V195.062H63.2975ZM63.2975 135.188C63.2975 133.831 63.0485 132.686 62.5382 131.763C62.0263 130.837 61.2579 130.146 60.2416 129.692L60.0784 130.058C61.0205 130.479 61.7208 131.111 62.1881 131.956C62.6569 132.804 62.8975 133.878 62.8975 135.188H63.2975ZM60.2388 129.691C59.3476 129.309 58.271 128.993 57.0117 128.741L56.9333 129.134C58.174 129.382 59.2224 129.691 60.0812 130.059L60.2388 129.691ZM57.013 128.742C55.8136 128.493 54.5295 128.142 53.1607 127.685L53.0343 128.065C54.4155 128.525 55.7148 128.882 56.932 129.133L57.013 128.742ZM53.2975 127.875V123.188H52.8975V127.875H53.2975ZM53.0975 123.388H93.0975V122.987H53.0975V123.388ZM92.8975 123.188V127.875H93.2975V123.188H92.8975ZM93.0266 127.688C91.8262 128.143 90.6687 128.495 89.5541 128.742L89.6409 129.133C90.7763 128.88 91.9522 128.523 93.1684 128.062L93.0266 127.688ZM89.5541 128.742C88.4191 128.994 87.4264 129.311 86.5779 129.693L86.7421 130.057C87.5603 129.689 88.5259 129.381 89.6409 129.133L89.5541 128.742ZM86.5754 129.694C84.6085 130.612 83.6475 132.47 83.6475 135.188H84.0475C84.0475 132.572 84.9615 130.888 86.7446 130.056L86.5754 129.694ZM83.6475 135.188V188.25H84.0475V135.188H83.6475ZM83.6475 188.25C83.6475 194.493 82.2839 199.532 79.5745 203.385C76.8665 207.236 72.8001 209.921 67.3565 211.432L67.4635 211.818C72.9782 210.287 77.1306 207.556 79.9017 203.615C82.6715 199.676 84.0475 194.549 84.0475 188.25H83.6475ZM67.3578 211.432C63.8343 212.385 59.8296 212.925 55.342 213.05L55.3531 213.45C59.8654 213.325 63.9024 212.781 67.4622 211.818L67.3578 211.432ZM55.5475 213.25V205.25H55.1475V213.25H55.5475ZM110.658 131.75L110.49 131.859L110.496 131.868L110.658 131.75ZM108.845 129.938L108.761 130.119L108.766 130.121L108.845 129.938ZM104.908 128.812L104.862 129.007L104.864 129.008L104.908 128.812ZM102.72 127.875H102.52V127.987L102.616 128.046L102.72 127.875ZM102.72 123.188V122.987H102.52V123.188H102.72ZM141.158 123.188H141.358V122.987H141.158V123.188ZM141.158 127.875L141.262 128.046L141.358 127.987V127.875H141.158ZM133.658 131.25L133.821 131.365L133.824 131.361L133.658 131.25ZM133.283 203.625L133.115 203.734L133.121 203.743L133.283 203.625ZM135.095 205.375L135.011 205.557L135.016 205.559L135.095 205.375ZM136.97 206L136.921 206.194L136.929 206.196L136.97 206ZM141.158 207.375H141.358V207.265L141.264 207.206L141.158 207.375ZM141.158 212V212.2H141.358V212H141.158ZM102.72 212H102.52V212.2H102.72V212ZM102.72 207.375L102.645 207.19L102.52 207.241V207.375H102.72ZM105.97 206.375L106.009 206.571L106.015 206.57L105.97 206.375ZM108.845 205.375L108.757 205.195L108.756 205.196L108.845 205.375ZM111.858 138.25C111.858 136.536 111.774 135.129 111.605 134.032C111.437 132.941 111.182 132.131 110.819 131.632L110.496 131.868C110.8 132.286 111.044 133.017 111.21 134.093C111.374 135.162 111.458 136.547 111.458 138.25H111.858ZM110.825 131.641C110.193 130.672 109.562 130.027 108.924 129.754L108.766 130.121C109.294 130.348 109.872 130.911 110.49 131.859L110.825 131.641ZM108.929 129.756C108.374 129.5 107.758 129.288 107.081 129.118L106.984 129.507C107.64 129.671 108.232 129.875 108.761 130.119L108.929 129.756ZM107.081 129.118C106.412 128.951 105.702 128.784 104.951 128.617L104.864 129.008C105.613 129.174 106.319 129.34 106.984 129.507L107.081 129.118ZM104.953 128.618C104.269 128.457 103.56 128.154 102.824 127.704L102.616 128.046C103.38 128.513 104.129 128.835 104.862 129.007L104.953 128.618ZM102.92 127.875V123.188H102.52V127.875H102.92ZM102.72 123.388H141.158V122.987H102.72V123.388ZM140.958 123.188V127.875H141.358V123.188H140.958ZM141.053 127.704C140.318 128.154 139.608 128.457 138.924 128.618L139.016 129.007C139.749 128.835 140.497 128.513 141.262 128.046L141.053 127.704ZM138.924 128.618C138.215 128.785 137.527 128.952 136.859 129.118L136.956 129.507C137.622 129.34 138.308 129.174 139.016 129.007L138.924 128.618ZM136.859 129.118C136.182 129.288 135.566 129.5 135.011 129.756L135.179 130.119C135.708 129.875 136.3 129.671 136.956 129.507L136.859 129.118ZM135.011 129.756C134.428 130.025 133.923 130.491 133.491 131.139L133.824 131.361C134.225 130.759 134.678 130.35 135.179 130.119L135.011 129.756ZM133.494 131.135C133.033 131.793 132.698 132.72 132.477 133.901C132.255 135.083 132.145 136.534 132.145 138.25H132.545C132.545 136.549 132.654 135.125 132.87 133.974C133.086 132.822 133.407 131.957 133.821 131.365L133.494 131.135ZM132.145 138.25V197H132.545V138.25H132.145ZM132.145 197C132.145 198.734 132.223 200.161 132.381 201.278C132.539 202.389 132.778 203.217 133.115 203.734L133.45 203.516C133.162 203.075 132.933 202.32 132.777 201.222C132.623 200.131 132.545 198.724 132.545 197H132.145ZM133.121 203.743C133.792 204.666 134.421 205.284 135.011 205.557L135.179 205.193C134.685 204.966 134.106 204.417 133.444 203.507L133.121 203.743ZM135.016 205.559C135.61 205.813 136.245 206.025 136.921 206.194L137.019 205.806C136.361 205.642 135.747 205.437 135.174 205.191L135.016 205.559ZM136.929 206.196C138.927 206.612 140.292 207.065 141.051 207.544L141.264 207.206C140.44 206.685 139.013 206.221 137.011 205.804L136.929 206.196ZM140.958 207.375V212H141.358V207.375H140.958ZM141.158 211.8H102.72V212.2H141.158V211.8ZM102.92 212V207.375H102.52V212H102.92ZM102.795 207.56C103.91 207.106 104.982 206.777 106.009 206.571L105.931 206.179C104.875 206.39 103.78 206.727 102.645 207.19L102.795 207.56ZM106.015 206.57C107.111 206.317 108.085 205.979 108.934 205.554L108.756 205.196C107.939 205.605 106.996 205.933 105.925 206.18L106.015 206.57ZM108.933 205.555C109.906 205.079 110.641 204.383 111.131 203.469C111.619 202.558 111.858 201.44 111.858 200.125H111.458C111.458 201.393 111.227 202.442 110.778 203.281C110.33 204.117 109.659 204.754 108.757 205.195L108.933 205.555ZM111.858 200.125V138.25H111.458V200.125H111.858ZM189.155 205.938L189.188 205.74L188.955 205.701V205.938H189.155ZM209.905 195.375L210.086 195.459L210.087 195.458L209.905 195.375ZM212.155 189.75L211.967 189.683L211.966 189.685L212.155 189.75ZM214.093 184.562L213.908 184.485L213.906 184.489L214.093 184.562ZM216.718 180.875V180.675H216.647L216.592 180.719L216.718 180.875ZM220.968 180.875H221.168V180.675H220.968V180.875ZM220.968 212V212.2H221.168V212H220.968ZM189.155 212H188.955V212.2H189.155V212ZM183.53 212V212.2H183.73V212H183.53ZM153.843 212H153.643V212.2H153.843V212ZM153.843 207.375L153.767 207.19L153.643 207.241V207.375H153.843ZM157.093 206.375L157.132 206.571L157.137 206.57L157.093 206.375ZM159.968 205.375L159.88 205.195L159.878 205.196L159.968 205.375ZM159.968 129.875L159.878 130.054L159.88 130.055L159.968 129.875ZM157.093 128.938L157.046 129.132L157.055 129.134L157.093 128.938ZM153.843 127.875H153.643V128.009L153.767 128.06L153.843 127.875ZM153.843 123.188V122.987H153.643V123.188H153.843ZM192.905 123.188H193.105V122.987H192.905V123.188ZM192.905 127.875L192.974 128.063L193.105 128.015V127.875H192.905ZM189.343 128.938L189.379 129.134L189.386 129.133L189.343 128.938ZM186.405 129.875L186.491 130.055L186.494 130.054L186.405 129.875ZM189.122 206.135C189.384 206.179 189.666 206.2 189.968 206.2V205.8C189.685 205.8 189.426 205.78 189.188 205.74L189.122 206.135ZM189.968 206.2C189.968 206.2 189.969 206.2 189.969 206.2C189.97 206.2 189.97 206.2 189.971 206.2C189.971 206.2 189.972 206.2 189.973 206.2C189.973 206.2 189.974 206.2 189.974 206.2C189.975 206.2 189.975 206.2 189.976 206.2C189.977 206.2 189.977 206.2 189.978 206.2C189.978 206.2 189.979 206.2 189.979 206.2C189.98 206.2 189.981 206.2 189.981 206.2C189.982 206.2 189.982 206.2 189.983 206.2C189.983 206.2 189.984 206.2 189.985 206.2C189.985 206.2 189.986 206.2 189.986 206.2C189.987 206.2 189.987 206.2 189.988 206.2C189.989 206.2 189.989 206.2 189.99 206.2C189.99 206.2 189.991 206.2 189.991 206.2C189.992 206.2 189.993 206.2 189.993 206.2C189.994 206.2 189.994 206.2 189.995 206.2C189.995 206.2 189.996 206.2 189.997 206.2C189.997 206.2 189.998 206.2 189.998 206.2C189.999 206.2 189.999 206.2 190 206.2C190.001 206.2 190.001 206.2 190.002 206.2C190.002 206.2 190.003 206.2 190.003 206.2C190.004 206.2 190.005 206.2 190.005 206.2C190.006 206.2 190.006 206.2 190.007 206.2C190.007 206.2 190.008 206.2 190.009 206.2C190.009 206.2 190.01 206.2 190.01 206.2C190.011 206.2 190.011 206.2 190.012 206.2C190.013 206.2 190.013 206.2 190.014 206.2C190.014 206.2 190.015 206.2 190.015 206.2C190.016 206.2 190.016 206.2 190.017 206.2C190.018 206.2 190.018 206.2 190.019 206.2C190.019 206.2 190.02 206.2 190.02 206.2C190.021 206.2 190.022 206.2 190.022 206.2C190.023 206.2 190.023 206.2 190.024 206.2C190.024 206.2 190.025 206.2 190.026 206.2C190.026 206.2 190.027 206.2 190.027 206.2C190.028 206.2 190.028 206.2 190.029 206.2C190.03 206.2 190.03 206.2 190.031 206.2C190.031 206.2 190.032 206.2 190.032 206.2C190.033 206.2 190.034 206.2 190.034 206.2C190.035 206.2 190.035 206.2 190.036 206.2C190.036 206.2 190.037 206.2 190.038 206.2C190.038 206.2 190.039 206.2 190.039 206.2C190.04 206.2 190.04 206.2 190.041 206.2C190.042 206.2 190.042 206.2 190.043 206.2C190.043 206.2 190.044 206.2 190.044 206.2C190.045 206.2 190.046 206.2 190.046 206.2C190.047 206.2 190.047 206.2 190.048 206.2C190.048 206.2 190.049 206.2 190.05 206.2C190.05 206.2 190.051 206.2 190.051 206.2C190.052 206.2 190.052 206.2 190.053 206.2C190.054 206.2 190.054 206.2 190.055 206.2C190.055 206.2 190.056 206.2 190.056 206.2C190.057 206.2 190.058 206.2 190.058 206.2C190.059 206.2 190.059 206.2 190.06 206.2C190.06 206.2 190.061 206.2 190.062 206.2C190.062 206.2 190.063 206.2 190.063 206.2C190.064 206.2 190.064 206.2 190.065 206.2C190.065 206.2 190.066 206.2 190.067 206.2C190.067 206.2 190.068 206.2 190.068 206.2C190.069 206.2 190.069 206.2 190.07 206.2C190.071 206.2 190.071 206.2 190.072 206.2C190.072 206.2 190.073 206.2 190.073 206.2C190.074 206.2 190.075 206.2 190.075 206.2C190.076 206.2 190.076 206.2 190.077 206.2C190.077 206.2 190.078 206.2 190.079 206.2C190.079 206.2 190.08 206.2 190.08 206.2C190.081 206.2 190.081 206.2 190.082 206.2C190.083 206.2 190.083 206.2 190.084 206.2C190.084 206.2 190.085 206.2 190.085 206.2C190.086 206.2 190.087 206.2 190.087 206.2C190.088 206.2 190.088 206.2 190.089 206.2C190.089 206.2 190.09 206.2 190.091 206.2C190.091 206.2 190.092 206.2 190.092 206.2C190.093 206.2 190.093 206.2 190.094 206.2C190.095 206.2 190.095 206.2 190.096 206.2C190.096 206.2 190.097 206.2 190.097 206.2C190.098 206.2 190.099 206.2 190.099 206.2C190.1 206.2 190.1 206.2 190.101 206.2C190.101 206.2 190.102 206.2 190.103 206.2C190.103 206.2 190.104 206.2 190.104 206.2C190.105 206.2 190.105 206.2 190.106 206.2C190.107 206.2 190.107 206.2 190.108 206.2C190.108 206.2 190.109 206.2 190.109 206.2C190.11 206.2 190.11 206.2 190.111 206.2C190.112 206.2 190.112 206.2 190.113 206.2C190.113 206.2 190.114 206.2 190.114 206.2C190.115 206.2 190.116 206.2 190.116 206.2C190.117 206.2 190.117 206.2 190.118 206.2C190.118 206.2 190.119 206.2 190.12 206.2C190.12 206.2 190.121 206.2 190.121 206.2C190.122 206.2 190.122 206.2 190.123 206.2C190.124 206.2 190.124 206.2 190.125 206.2C190.125 206.2 190.126 206.2 190.126 206.2C190.127 206.2 190.128 206.2 190.128 206.2C190.129 206.2 190.129 206.2 190.13 206.2C190.13 206.2 190.131 206.2 190.132 206.2C190.132 206.2 190.133 206.2 190.133 206.2C190.134 206.2 190.134 206.2 190.135 206.2C190.136 206.2 190.136 206.2 190.137 206.2C190.137 206.2 190.138 206.2 190.138 206.2C190.139 206.2 190.14 206.2 190.14 206.2C190.141 206.2 190.141 206.2 190.142 206.2C190.142 206.2 190.143 206.2 190.144 206.2C190.144 206.2 190.145 206.2 190.145 206.2C190.146 206.2 190.146 206.2 190.147 206.2C190.148 206.2 190.148 206.2 190.149 206.2C190.149 206.2 190.15 206.2 190.15 206.2C190.151 206.2 190.152 206.2 190.152 206.2C190.153 206.2 190.153 206.2 190.154 206.2C190.154 206.2 190.155 206.2 190.155 206.2C190.156 206.2 190.157 206.2 190.157 206.2C190.158 206.2 190.158 206.2 190.159 206.2C190.159 206.2 190.16 206.2 190.161 206.2C190.161 206.2 190.162 206.2 190.162 206.2C190.163 206.2 190.163 206.2 190.164 206.2C190.165 206.2 190.165 206.2 190.166 206.2C190.166 206.2 190.167 206.2 190.167 206.2C190.168 206.2 190.169 206.2 190.169 206.2C190.17 206.2 190.17 206.2 190.171 206.2C190.171 206.2 190.172 206.2 190.173 206.2C190.173 206.2 190.174 206.2 190.174 206.2C190.175 206.2 190.175 206.2 190.176 206.2C190.177 206.2 190.177 206.2 190.178 206.2C190.178 206.2 190.179 206.2 190.179 206.2C190.18 206.2 190.181 206.2 190.181 206.2C190.182 206.2 190.182 206.2 190.183 206.2C190.183 206.2 190.184 206.2 190.185 206.2C190.185 206.2 190.186 206.2 190.186 206.2C190.187 206.2 190.187 206.2 190.188 206.2C190.189 206.2 190.189 206.2 190.19 206.2C190.19 206.2 190.191 206.2 190.191 206.2C190.192 206.2 190.193 206.2 190.193 206.2C190.194 206.2 190.194 206.2 190.195 206.2C190.195 206.2 190.196 206.2 190.197 206.2C190.197 206.2 190.198 206.2 190.198 206.2C190.199 206.2 190.199 206.2 190.2 206.2C190.2 206.2 190.201 206.2 190.202 206.2C190.202 206.2 190.203 206.2 190.203 206.2C190.204 206.2 190.204 206.2 190.205 206.2C190.206 206.2 190.206 206.2 190.207 206.2C190.207 206.2 190.208 206.2 190.208 206.2C190.209 206.2 190.21 206.2 190.21 206.2C190.211 206.2 190.211 206.2 190.212 206.2C190.212 206.2 190.213 206.2 190.214 206.2C190.214 206.2 190.215 206.2 190.215 206.2C190.216 206.2 190.216 206.2 190.217 206.2C190.218 206.2 190.218 206.2 190.219 206.2C190.219 206.2 190.22 206.2 190.22 206.2C190.221 206.2 190.222 206.2 190.222 206.2C190.223 206.2 190.223 206.2 190.224 206.2C190.224 206.2 190.225 206.2 190.226 206.2C190.226 206.2 190.227 206.2 190.227 206.2C190.228 206.2 190.228 206.2 190.229 206.2C190.23 206.2 190.23 206.2 190.231 206.2C190.231 206.2 190.232 206.2 190.232 206.2C190.233 206.2 190.234 206.2 190.234 206.2C190.235 206.2 190.235 206.2 190.236 206.2C190.236 206.2 190.237 206.2 190.238 206.2C190.238 206.2 190.239 206.2 190.239 206.2C190.24 206.2 190.24 206.2 190.241 206.2C190.242 206.2 190.242 206.2 190.243 206.2C190.243 206.2 190.244 206.2 190.244 206.2C190.245 206.2 190.246 206.2 190.246 206.2C190.247 206.2 190.247 206.2 190.248 206.2C190.248 206.2 190.249 206.2 190.249 206.2C190.25 206.2 190.251 206.2 190.251 206.2C190.252 206.2 190.252 206.2 190.253 206.2C190.253 206.2 190.254 206.2 190.255 206.2C190.255 206.2 190.256 206.2 190.256 206.2C190.257 206.2 190.257 206.2 190.258 206.2C190.259 206.2 190.259 206.2 190.26 206.2C190.26 206.2 190.261 206.2 190.261 206.2C190.262 206.2 190.263 206.2 190.263 206.2C190.264 206.2 190.264 206.2 190.265 206.2C190.265 206.2 190.266 206.2 190.267 206.2C190.267 206.2 190.268 206.2 190.268 206.2C190.269 206.2 190.269 206.2 190.27 206.2C190.271 206.2 190.271 206.2 190.272 206.2C190.272 206.2 190.273 206.2 190.273 206.2C190.274 206.2 190.275 206.2 190.275 206.2C190.276 206.2 190.276 206.2 190.277 206.2C190.277 206.2 190.278 206.2 190.279 206.2C190.279 206.2 190.28 206.2 190.28 206.2C190.281 206.2 190.281 206.2 190.282 206.2C190.283 206.2 190.283 206.2 190.284 206.2C190.284 206.2 190.285 206.2 190.285 206.2C190.286 206.2 190.287 206.2 190.287 206.2C190.288 206.2 190.288 206.2 190.289 206.2C190.289 206.2 190.29 206.2 190.291 206.2C190.291 206.2 190.292 206.2 190.292 206.2C190.293 206.2 190.293 206.2 190.294 206.2C190.294 206.2 190.295 206.2 190.296 206.2C190.296 206.2 190.297 206.2 190.297 206.2C190.298 206.2 190.298 206.2 190.299 206.2C190.3 206.2 190.3 206.2 190.301 206.2C190.301 206.2 190.302 206.2 190.302 206.2C190.303 206.2 190.304 206.2 190.304 206.2C190.305 206.2 190.305 206.2 190.306 206.2C190.306 206.2 190.307 206.2 190.308 206.2C190.308 206.2 190.309 206.2 190.309 206.2C190.31 206.2 190.31 206.2 190.311 206.2C190.312 206.2 190.312 206.2 190.313 206.2C190.313 206.2 190.314 206.2 190.314 206.2C190.315 206.2 190.316 206.2 190.316 206.2C190.317 206.2 190.317 206.2 190.318 206.2C190.318 206.2 190.319 206.2 190.32 206.2C190.32 206.2 190.321 206.2 190.321 206.2C190.322 206.2 190.322 206.2 190.323 206.2C190.324 206.2 190.324 206.2 190.325 206.2C190.325 206.2 190.326 206.2 190.326 206.2C190.327 206.2 190.328 206.2 190.328 206.2C190.329 206.2 190.329 206.2 190.33 206.2C190.33 206.2 190.331 206.2 190.332 206.2C190.332 206.2 190.333 206.2 190.333 206.2C190.334 206.2 190.334 206.2 190.335 206.2C190.336 206.2 190.336 206.2 190.337 206.2C190.337 206.2 190.338 206.2 190.338 206.2C190.339 206.2 190.339 206.2 190.34 206.2C190.341 206.2 190.341 206.2 190.342 206.2C190.342 206.2 190.343 206.2 190.343 206.2C190.344 206.2 190.345 206.2 190.345 206.2C190.346 206.2 190.346 206.2 190.347 206.2C190.347 206.2 190.348 206.2 190.349 206.2C190.349 206.2 190.35 206.2 190.35 206.2C190.351 206.2 190.351 206.2 190.352 206.2C190.353 206.2 190.353 206.2 190.354 206.2C190.354 206.2 190.355 206.2 190.355 206.2C190.356 206.2 190.357 206.2 190.357 206.2C190.358 206.2 190.358 206.2 190.359 206.2C190.359 206.2 190.36 206.2 190.361 206.2C190.361 206.2 190.362 206.2 190.362 206.2C190.363 206.2 190.363 206.2 190.364 206.2C190.365 206.2 190.365 206.2 190.366 206.2C190.366 206.2 190.367 206.2 190.367 206.2C190.368 206.2 190.369 206.2 190.369 206.2C190.37 206.2 190.37 206.2 190.371 206.2C190.371 206.2 190.372 206.2 190.373 206.2C190.373 206.2 190.374 206.2 190.374 206.2C190.375 206.2 190.375 206.2 190.376 206.2C190.377 206.2 190.377 206.2 190.378 206.2C190.378 206.2 190.379 206.2 190.379 206.2C190.38 206.2 190.381 206.2 190.381 206.2C190.382 206.2 190.382 206.2 190.383 206.2C190.383 206.2 190.384 206.2 190.384 206.2C190.385 206.2 190.386 206.2 190.386 206.2C190.387 206.2 190.387 206.2 190.388 206.2C190.388 206.2 190.389 206.2 190.39 206.2C190.39 206.2 190.391 206.2 190.391 206.2C190.392 206.2 190.392 206.2 190.393 206.2C190.394 206.2 190.394 206.2 190.395 206.2C190.395 206.2 190.396 206.2 190.396 206.2C190.397 206.2 190.398 206.2 190.398 206.2C190.399 206.2 190.399 206.2 190.4 206.2C190.4 206.2 190.401 206.2 190.402 206.2C190.402 206.2 190.403 206.2 190.403 206.2C190.404 206.2 190.404 206.2 190.405 206.2C190.406 206.2 190.406 206.2 190.407 206.2C190.407 206.2 190.408 206.2 190.408 206.2C190.409 206.2 190.41 206.2 190.41 206.2C190.411 206.2 190.411 206.2 190.412 206.2C190.412 206.2 190.413 206.2 190.414 206.2C190.414 206.2 190.415 206.2 190.415 206.2C190.416 206.2 190.416 206.2 190.417 206.2C190.418 206.2 190.418 206.2 190.419 206.2C190.419 206.2 190.42 206.2 190.42 206.2C190.421 206.2 190.422 206.2 190.422 206.2C190.423 206.2 190.423 206.2 190.424 206.2C190.424 206.2 190.425 206.2 190.426 206.2C190.426 206.2 190.427 206.2 190.427 206.2C190.428 206.2 190.428 206.2 190.429 206.2C190.43 206.2 190.43 206.2 190.431 206.2C190.431 206.2 190.432 206.2 190.432 206.2C190.433 206.2 190.433 206.2 190.434 206.2C190.435 206.2 190.435 206.2 190.436 206.2C190.436 206.2 190.437 206.2 190.437 206.2C190.438 206.2 190.439 206.2 190.439 206.2C190.44 206.2 190.44 206.2 190.441 206.2C190.441 206.2 190.442 206.2 190.443 206.2C190.443 206.2 190.444 206.2 190.444 206.2C190.445 206.2 190.445 206.2 190.446 206.2C190.447 206.2 190.447 206.2 190.448 206.2C190.448 206.2 190.449 206.2 190.449 206.2C190.45 206.2 190.451 206.2 190.451 206.2C190.452 206.2 190.452 206.2 190.453 206.2C190.453 206.2 190.454 206.2 190.455 206.2C190.455 206.2 190.456 206.2 190.456 206.2C190.457 206.2 190.457 206.2 190.458 206.2C190.459 206.2 190.459 206.2 190.46 206.2C190.46 206.2 190.461 206.2 190.461 206.2C190.462 206.2 190.463 206.2 190.463 206.2C190.464 206.2 190.464 206.2 190.465 206.2C190.465 206.2 190.466 206.2 190.467 206.2C190.467 206.2 190.468 206.2 190.468 206.2C190.469 206.2 190.469 206.2 190.47 206.2C190.471 206.2 190.471 206.2 190.472 206.2C190.472 206.2 190.473 206.2 190.473 206.2C190.474 206.2 190.475 206.2 190.475 206.2C190.476 206.2 190.476 206.2 190.477 206.2C190.477 206.2 190.478 206.2 190.478 206.2C190.479 206.2 190.48 206.2 190.48 206.2C190.481 206.2 190.481 206.2 190.482 206.2C190.482 206.2 190.483 206.2 190.484 206.2C190.484 206.2 190.485 206.2 190.485 206.2C190.486 206.2 190.486 206.2 190.487 206.2C190.488 206.2 190.488 206.2 190.489 206.2C190.489 206.2 190.49 206.2 190.49 206.2C190.491 206.2 190.492 206.2 190.492 206.2C190.493 206.2 190.493 206.2 190.494 206.2C190.494 206.2 190.495 206.2 190.496 206.2C190.496 206.2 190.497 206.2 190.497 206.2C190.498 206.2 190.498 206.2 190.499 206.2C190.5 206.2 190.5 206.2 190.501 206.2C190.501 206.2 190.502 206.2 190.502 206.2C190.503 206.2 190.504 206.2 190.504 206.2C190.505 206.2 190.505 206.2 190.506 206.2C190.506 206.2 190.507 206.2 190.508 206.2C190.508 206.2 190.509 206.2 190.509 206.2C190.51 206.2 190.51 206.2 190.511 206.2C190.512 206.2 190.512 206.2 190.513 206.2C190.513 206.2 190.514 206.2 190.514 206.2C190.515 206.2 190.516 206.2 190.516 206.2C190.517 206.2 190.517 206.2 190.518 206.2C190.518 206.2 190.519 206.2 190.52 206.2C190.52 206.2 190.521 206.2 190.521 206.2C190.522 206.2 190.522 206.2 190.523 206.2C190.523 206.2 190.524 206.2 190.525 206.2C190.525 206.2 190.526 206.2 190.526 206.2C190.527 206.2 190.527 206.2 190.528 206.2C190.529 206.2 190.529 206.2 190.53 206.2C190.53 206.2 190.531 206.2 190.531 206.2C190.532 206.2 190.533 206.2 190.533 206.2C190.534 206.2 190.534 206.2 190.535 206.2C190.535 206.2 190.536 206.2 190.537 206.2C190.537 206.2 190.538 206.2 190.538 206.2C190.539 206.2 190.539 206.2 190.54 206.2C190.541 206.2 190.541 206.2 190.542 206.2C190.542 206.2 190.543 206.2 190.543 206.2C190.544 206.2 190.545 206.2 190.545 206.2C190.546 206.2 190.546 206.2 190.547 206.2C190.547 206.2 190.548 206.2 190.549 206.2C190.549 206.2 190.55 206.2 190.55 206.2C190.551 206.2 190.551 206.2 190.552 206.2C190.553 206.2 190.553 206.2 190.554 206.2C190.554 206.2 190.555 206.2 190.555 206.2C190.556 206.2 190.557 206.2 190.557 206.2C190.558 206.2 190.558 206.2 190.559 206.2C190.559 206.2 190.56 206.2 190.561 206.2C190.561 206.2 190.562 206.2 190.562 206.2C190.563 206.2 190.563 206.2 190.564 206.2C190.565 206.2 190.565 206.2 190.566 206.2C190.566 206.2 190.567 206.2 190.567 206.2C190.568 206.2 190.568 206.2 190.569 206.2C190.57 206.2 190.57 206.2 190.571 206.2C190.571 206.2 190.572 206.2 190.572 206.2C190.573 206.2 190.574 206.2 190.574 206.2C190.575 206.2 190.575 206.2 190.576 206.2C190.576 206.2 190.577 206.2 190.578 206.2C190.578 206.2 190.579 206.2 190.579 206.2C190.58 206.2 190.58 206.2 190.581 206.2C190.582 206.2 190.582 206.2 190.583 206.2C190.583 206.2 190.584 206.2 190.584 206.2C190.585 206.2 190.586 206.2 190.586 206.2C190.587 206.2 190.587 206.2 190.588 206.2C190.588 206.2 190.589 206.2 190.59 206.2C190.59 206.2 190.591 206.2 190.591 206.2C190.592 206.2 190.592 206.2 190.593 206.2C190.594 206.2 190.594 206.2 190.595 206.2C190.595 206.2 190.596 206.2 190.596 206.2C190.597 206.2 190.598 206.2 190.598 206.2C190.599 206.2 190.599 206.2 190.6 206.2C190.6 206.2 190.601 206.2 190.602 206.2C190.602 206.2 190.603 206.2 190.603 206.2C190.604 206.2 190.604 206.2 190.605 206.2C190.606 206.2 190.606 206.2 190.607 206.2C190.607 206.2 190.608 206.2 190.608 206.2C190.609 206.2 190.61 206.2 190.61 206.2C190.611 206.2 190.611 206.2 190.612 206.2C190.612 206.2 190.613 206.2 190.614 206.2C190.614 206.2 190.615 206.2 190.615 206.2C190.616 206.2 190.616 206.2 190.617 206.2C190.617 206.2 190.618 206.2 190.619 206.2C190.619 206.2 190.62 206.2 190.62 206.2C190.621 206.2 190.621 206.2 190.622 206.2C190.623 206.2 190.623 206.2 190.624 206.2C190.624 206.2 190.625 206.2 190.625 206.2C190.626 206.2 190.627 206.2 190.627 206.2C190.628 206.2 190.628 206.2 190.629 206.2C190.629 206.2 190.63 206.2 190.631 206.2C190.631 206.2 190.632 206.2 190.632 206.2C190.633 206.2 190.633 206.2 190.634 206.2C190.635 206.2 190.635 206.2 190.636 206.2C190.636 206.2 190.637 206.2 190.637 206.2C190.638 206.2 190.639 206.2 190.639 206.2C190.64 206.2 190.64 206.2 190.641 206.2C190.641 206.2 190.642 206.2 190.643 206.2C190.643 206.2 190.644 206.2 190.644 206.2C190.645 206.2 190.645 206.2 190.646 206.2C190.647 206.2 190.647 206.2 190.648 206.2C190.648 206.2 190.649 206.2 190.649 206.2C190.65 206.2 190.651 206.2 190.651 206.2C190.652 206.2 190.652 206.2 190.653 206.2C190.653 206.2 190.654 206.2 190.655 206.2C190.655 206.2 190.656 206.2 190.656 206.2C190.657 206.2 190.657 206.2 190.658 206.2C190.659 206.2 190.659 206.2 190.66 206.2C190.66 206.2 190.661 206.2 190.661 206.2C190.662 206.2 190.662 206.2 190.663 206.2C190.664 206.2 190.664 206.2 190.665 206.2C190.665 206.2 190.666 206.2 190.666 206.2C190.667 206.2 190.668 206.2 190.668 206.2C190.669 206.2 190.669 206.2 190.67 206.2C190.67 206.2 190.671 206.2 190.672 206.2C190.672 206.2 190.673 206.2 190.673 206.2C190.674 206.2 190.674 206.2 190.675 206.2C190.676 206.2 190.676 206.2 190.677 206.2C190.677 206.2 190.678 206.2 190.678 206.2C190.679 206.2 190.68 206.2 190.68 206.2C190.681 206.2 190.681 206.2 190.682 206.2C190.682 206.2 190.683 206.2 190.684 206.2C190.684 206.2 190.685 206.2 190.685 206.2C190.686 206.2 190.686 206.2 190.687 206.2C190.688 206.2 190.688 206.2 190.689 206.2C190.689 206.2 190.69 206.2 190.69 206.2C190.691 206.2 190.692 206.2 190.692 206.2C190.693 206.2 190.693 206.2 190.694 206.2C190.694 206.2 190.695 206.2 190.696 206.2C190.696 206.2 190.697 206.2 190.697 206.2C190.698 206.2 190.698 206.2 190.699 206.2C190.7 206.2 190.7 206.2 190.701 206.2C190.701 206.2 190.702 206.2 190.702 206.2C190.703 206.2 190.704 206.2 190.704 206.2C190.705 206.2 190.705 206.2 190.706 206.2C190.706 206.2 190.707 206.2 190.707 206.2C190.708 206.2 190.709 206.2 190.709 206.2C190.71 206.2 190.71 206.2 190.711 206.2C190.711 206.2 190.712 206.2 190.713 206.2C190.713 206.2 190.714 206.2 190.714 206.2C190.715 206.2 190.715 206.2 190.716 206.2C190.717 206.2 190.717 206.2 190.718 206.2C190.718 206.2 190.719 206.2 190.719 206.2C190.72 206.2 190.721 206.2 190.721 206.2C190.722 206.2 190.722 206.2 190.723 206.2C190.723 206.2 190.724 206.2 190.725 206.2C190.725 206.2 190.726 206.2 190.726 206.2C190.727 206.2 190.727 206.2 190.728 206.2C190.729 206.2 190.729 206.2 190.73 206.2C190.73 206.2 190.731 206.2 190.731 206.2C190.732 206.2 190.733 206.2 190.733 206.2C190.734 206.2 190.734 206.2 190.735 206.2C190.735 206.2 190.736 206.2 190.737 206.2C190.737 206.2 190.738 206.2 190.738 206.2C190.739 206.2 190.739 206.2 190.74 206.2C190.741 206.2 190.741 206.2 190.742 206.2C190.742 206.2 190.743 206.2 190.743 206.2C190.744 206.2 190.745 206.2 190.745 206.2C190.746 206.2 190.746 206.2 190.747 206.2C190.747 206.2 190.748 206.2 190.749 206.2C190.749 206.2 190.75 206.2 190.75 206.2C190.751 206.2 190.751 206.2 190.752 206.2C190.752 206.2 190.753 206.2 190.754 206.2C190.754 206.2 190.755 206.2 190.755 206.2C190.756 206.2 190.756 206.2 190.757 206.2C190.758 206.2 190.758 206.2 190.759 206.2C190.759 206.2 190.76 206.2 190.76 206.2C190.761 206.2 190.762 206.2 190.762 206.2C190.763 206.2 190.763 206.2 190.764 206.2C190.764 206.2 190.765 206.2 190.766 206.2C190.766 206.2 190.767 206.2 190.767 206.2C190.768 206.2 190.768 206.2 190.769 206.2C190.77 206.2 190.77 206.2 190.771 206.2C190.771 206.2 190.772 206.2 190.772 206.2C190.773 206.2 190.774 206.2 190.774 206.2C190.775 206.2 190.775 206.2 190.776 206.2C190.776 206.2 190.777 206.2 190.778 206.2C190.778 206.2 190.779 206.2 190.779 206.2C190.78 206.2 190.78 206.2 190.781 206.2C190.782 206.2 190.782 206.2 190.783 206.2C190.783 206.2 190.784 206.2 190.784 206.2C190.785 206.2 190.786 206.2 190.786 206.2C190.787 206.2 190.787 206.2 190.788 206.2C190.788 206.2 190.789 206.2 190.79 206.2C190.79 206.2 190.791 206.2 190.791 206.2C190.792 206.2 190.792 206.2 190.793 206.2C190.794 206.2 190.794 206.2 190.795 206.2C190.795 206.2 190.796 206.2 190.796 206.2C190.797 206.2 190.798 206.2 190.798 206.2C190.799 206.2 190.799 206.2 190.8 206.2C190.8 206.2 190.801 206.2 190.801 206.2C190.802 206.2 190.803 206.2 190.803 206.2C190.804 206.2 190.804 206.2 190.805 206.2C190.805 206.2 190.806 206.2 190.807 206.2C190.807 206.2 190.808 206.2 190.808 206.2C190.809 206.2 190.809 206.2 190.81 206.2C190.811 206.2 190.811 206.2 190.812 206.2C190.812 206.2 190.813 206.2 190.813 206.2C190.814 206.2 190.815 206.2 190.815 206.2C190.816 206.2 190.816 206.2 190.817 206.2C190.817 206.2 190.818 206.2 190.819 206.2C190.819 206.2 190.82 206.2 190.82 206.2C190.821 206.2 190.821 206.2 190.822 206.2C190.823 206.2 190.823 206.2 190.824 206.2C190.824 206.2 190.825 206.2 190.825 206.2C190.826 206.2 190.827 206.2 190.827 206.2C190.828 206.2 190.828 206.2 190.829 206.2C190.829 206.2 190.83 206.2 190.831 206.2C190.831 206.2 190.832 206.2 190.832 206.2C190.833 206.2 190.833 206.2 190.834 206.2C190.835 206.2 190.835 206.2 190.836 206.2C190.836 206.2 190.837 206.2 190.837 206.2C190.838 206.2 190.839 206.2 190.839 206.2C190.84 206.2 190.84 206.2 190.841 206.2C190.841 206.2 190.842 206.2 190.843 206.2V205.8C190.842 205.8 190.841 205.8 190.841 205.8C190.84 205.8 190.84 205.8 190.839 205.8C190.839 205.8 190.838 205.8 190.837 205.8C190.837 205.8 190.836 205.8 190.836 205.8C190.835 205.8 190.835 205.8 190.834 205.8C190.833 205.8 190.833 205.8 190.832 205.8C190.832 205.8 190.831 205.8 190.831 205.8C190.83 205.8 190.829 205.8 190.829 205.8C190.828 205.8 190.828 205.8 190.827 205.8C190.827 205.8 190.826 205.8 190.825 205.8C190.825 205.8 190.824 205.8 190.824 205.8C190.823 205.8 190.823 205.8 190.822 205.8C190.821 205.8 190.821 205.8 190.82 205.8C190.82 205.8 190.819 205.8 190.819 205.8C190.818 205.8 190.817 205.8 190.817 205.8C190.816 205.8 190.816 205.8 190.815 205.8C190.815 205.8 190.814 205.8 190.813 205.8C190.813 205.8 190.812 205.8 190.812 205.8C190.811 205.8 190.811 205.8 190.81 205.8C190.809 205.8 190.809 205.8 190.808 205.8C190.808 205.8 190.807 205.8 190.807 205.8C190.806 205.8 190.805 205.8 190.805 205.8C190.804 205.8 190.804 205.8 190.803 205.8C190.803 205.8 190.802 205.8 190.801 205.8C190.801 205.8 190.8 205.8 190.8 205.8C190.799 205.8 190.799 205.8 190.798 205.8C190.798 205.8 190.797 205.8 190.796 205.8C190.796 205.8 190.795 205.8 190.795 205.8C190.794 205.8 190.794 205.8 190.793 205.8C190.792 205.8 190.792 205.8 190.791 205.8C190.791 205.8 190.79 205.8 190.79 205.8C190.789 205.8 190.788 205.8 190.788 205.8C190.787 205.8 190.787 205.8 190.786 205.8C190.786 205.8 190.785 205.8 190.784 205.8C190.784 205.8 190.783 205.8 190.783 205.8C190.782 205.8 190.782 205.8 190.781 205.8C190.78 205.8 190.78 205.8 190.779 205.8C190.779 205.8 190.778 205.8 190.778 205.8C190.777 205.8 190.776 205.8 190.776 205.8C190.775 205.8 190.775 205.8 190.774 205.8C190.774 205.8 190.773 205.8 190.772 205.8C190.772 205.8 190.771 205.8 190.771 205.8C190.77 205.8 190.77 205.8 190.769 205.8C190.768 205.8 190.768 205.8 190.767 205.8C190.767 205.8 190.766 205.8 190.766 205.8C190.765 205.8 190.764 205.8 190.764 205.8C190.763 205.8 190.763 205.8 190.762 205.8C190.762 205.8 190.761 205.8 190.76 205.8C190.76 205.8 190.759 205.8 190.759 205.8C190.758 205.8 190.758 205.8 190.757 205.8C190.756 205.8 190.756 205.8 190.755 205.8C190.755 205.8 190.754 205.8 190.754 205.8C190.753 205.8 190.752 205.8 190.752 205.8C190.751 205.8 190.751 205.8 190.75 205.8C190.75 205.8 190.749 205.8 190.749 205.8C190.748 205.8 190.747 205.8 190.747 205.8C190.746 205.8 190.746 205.8 190.745 205.8C190.745 205.8 190.744 205.8 190.743 205.8C190.743 205.8 190.742 205.8 190.742 205.8C190.741 205.8 190.741 205.8 190.74 205.8C190.739 205.8 190.739 205.8 190.738 205.8C190.738 205.8 190.737 205.8 190.737 205.8C190.736 205.8 190.735 205.8 190.735 205.8C190.734 205.8 190.734 205.8 190.733 205.8C190.733 205.8 190.732 205.8 190.731 205.8C190.731 205.8 190.73 205.8 190.73 205.8C190.729 205.8 190.729 205.8 190.728 205.8C190.727 205.8 190.727 205.8 190.726 205.8C190.726 205.8 190.725 205.8 190.725 205.8C190.724 205.8 190.723 205.8 190.723 205.8C190.722 205.8 190.722 205.8 190.721 205.8C190.721 205.8 190.72 205.8 190.719 205.8C190.719 205.8 190.718 205.8 190.718 205.8C190.717 205.8 190.717 205.8 190.716 205.8C190.715 205.8 190.715 205.8 190.714 205.8C190.714 205.8 190.713 205.8 190.713 205.8C190.712 205.8 190.711 205.8 190.711 205.8C190.71 205.8 190.71 205.8 190.709 205.8C190.709 205.8 190.708 205.8 190.707 205.8C190.707 205.8 190.706 205.8 190.706 205.8C190.705 205.8 190.705 205.8 190.704 205.8C190.704 205.8 190.703 205.8 190.702 205.8C190.702 205.8 190.701 205.8 190.701 205.8C190.7 205.8 190.7 205.8 190.699 205.8C190.698 205.8 190.698 205.8 190.697 205.8C190.697 205.8 190.696 205.8 190.696 205.8C190.695 205.8 190.694 205.8 190.694 205.8C190.693 205.8 190.693 205.8 190.692 205.8C190.692 205.8 190.691 205.8 190.69 205.8C190.69 205.8 190.689 205.8 190.689 205.8C190.688 205.8 190.688 205.8 190.687 205.8C190.686 205.8 190.686 205.8 190.685 205.8C190.685 205.8 190.684 205.8 190.684 205.8C190.683 205.8 190.682 205.8 190.682 205.8C190.681 205.8 190.681 205.8 190.68 205.8C190.68 205.8 190.679 205.8 190.678 205.8C190.678 205.8 190.677 205.8 190.677 205.8C190.676 205.8 190.676 205.8 190.675 205.8C190.674 205.8 190.674 205.8 190.673 205.8C190.673 205.8 190.672 205.8 190.672 205.8C190.671 205.8 190.67 205.8 190.67 205.8C190.669 205.8 190.669 205.8 190.668 205.8C190.668 205.8 190.667 205.8 190.666 205.8C190.666 205.8 190.665 205.8 190.665 205.8C190.664 205.8 190.664 205.8 190.663 205.8C190.662 205.8 190.662 205.8 190.661 205.8C190.661 205.8 190.66 205.8 190.66 205.8C190.659 205.8 190.659 205.8 190.658 205.8C190.657 205.8 190.657 205.8 190.656 205.8C190.656 205.8 190.655 205.8 190.655 205.8C190.654 205.8 190.653 205.8 190.653 205.8C190.652 205.8 190.652 205.8 190.651 205.8C190.651 205.8 190.65 205.8 190.649 205.8C190.649 205.8 190.648 205.8 190.648 205.8C190.647 205.8 190.647 205.8 190.646 205.8C190.645 205.8 190.645 205.8 190.644 205.8C190.644 205.8 190.643 205.8 190.643 205.8C190.642 205.8 190.641 205.8 190.641 205.8C190.64 205.8 190.64 205.8 190.639 205.8C190.639 205.8 190.638 205.8 190.637 205.8C190.637 205.8 190.636 205.8 190.636 205.8C190.635 205.8 190.635 205.8 190.634 205.8C190.633 205.8 190.633 205.8 190.632 205.8C190.632 205.8 190.631 205.8 190.631 205.8C190.63 205.8 190.629 205.8 190.629 205.8C190.628 205.8 190.628 205.8 190.627 205.8C190.627 205.8 190.626 205.8 190.625 205.8C190.625 205.8 190.624 205.8 190.624 205.8C190.623 205.8 190.623 205.8 190.622 205.8C190.621 205.8 190.621 205.8 190.62 205.8C190.62 205.8 190.619 205.8 190.619 205.8C190.618 205.8 190.617 205.8 190.617 205.8C190.616 205.8 190.616 205.8 190.615 205.8C190.615 205.8 190.614 205.8 190.614 205.8C190.613 205.8 190.612 205.8 190.612 205.8C190.611 205.8 190.611 205.8 190.61 205.8C190.61 205.8 190.609 205.8 190.608 205.8C190.608 205.8 190.607 205.8 190.607 205.8C190.606 205.8 190.606 205.8 190.605 205.8C190.604 205.8 190.604 205.8 190.603 205.8C190.603 205.8 190.602 205.8 190.602 205.8C190.601 205.8 190.6 205.8 190.6 205.8C190.599 205.8 190.599 205.8 190.598 205.8C190.598 205.8 190.597 205.8 190.596 205.8C190.596 205.8 190.595 205.8 190.595 205.8C190.594 205.8 190.594 205.8 190.593 205.8C190.592 205.8 190.592 205.8 190.591 205.8C190.591 205.8 190.59 205.8 190.59 205.8C190.589 205.8 190.588 205.8 190.588 205.8C190.587 205.8 190.587 205.8 190.586 205.8C190.586 205.8 190.585 205.8 190.584 205.8C190.584 205.8 190.583 205.8 190.583 205.8C190.582 205.8 190.582 205.8 190.581 205.8C190.58 205.8 190.58 205.8 190.579 205.8C190.579 205.8 190.578 205.8 190.578 205.8C190.577 205.8 190.576 205.8 190.576 205.8C190.575 205.8 190.575 205.8 190.574 205.8C190.574 205.8 190.573 205.8 190.572 205.8C190.572 205.8 190.571 205.8 190.571 205.8C190.57 205.8 190.57 205.8 190.569 205.8C190.568 205.8 190.568 205.8 190.567 205.8C190.567 205.8 190.566 205.8 190.566 205.8C190.565 205.8 190.565 205.8 190.564 205.8C190.563 205.8 190.563 205.8 190.562 205.8C190.562 205.8 190.561 205.8 190.561 205.8C190.56 205.8 190.559 205.8 190.559 205.8C190.558 205.8 190.558 205.8 190.557 205.8C190.557 205.8 190.556 205.8 190.555 205.8C190.555 205.8 190.554 205.8 190.554 205.8C190.553 205.8 190.553 205.8 190.552 205.8C190.551 205.8 190.551 205.8 190.55 205.8C190.55 205.8 190.549 205.8 190.549 205.8C190.548 205.8 190.547 205.8 190.547 205.8C190.546 205.8 190.546 205.8 190.545 205.8C190.545 205.8 190.544 205.8 190.543 205.8C190.543 205.8 190.542 205.8 190.542 205.8C190.541 205.8 190.541 205.8 190.54 205.8C190.539 205.8 190.539 205.8 190.538 205.8C190.538 205.8 190.537 205.8 190.537 205.8C190.536 205.8 190.535 205.8 190.535 205.8C190.534 205.8 190.534 205.8 190.533 205.8C190.533 205.8 190.532 205.8 190.531 205.8C190.531 205.8 190.53 205.8 190.53 205.8C190.529 205.8 190.529 205.8 190.528 205.8C190.527 205.8 190.527 205.8 190.526 205.8C190.526 205.8 190.525 205.8 190.525 205.8C190.524 205.8 190.523 205.8 190.523 205.8C190.522 205.8 190.522 205.8 190.521 205.8C190.521 205.8 190.52 205.8 190.52 205.8C190.519 205.8 190.518 205.8 190.518 205.8C190.517 205.8 190.517 205.8 190.516 205.8C190.516 205.8 190.515 205.8 190.514 205.8C190.514 205.8 190.513 205.8 190.513 205.8C190.512 205.8 190.512 205.8 190.511 205.8C190.51 205.8 190.51 205.8 190.509 205.8C190.509 205.8 190.508 205.8 190.508 205.8C190.507 205.8 190.506 205.8 190.506 205.8C190.505 205.8 190.505 205.8 190.504 205.8C190.504 205.8 190.503 205.8 190.502 205.8C190.502 205.8 190.501 205.8 190.501 205.8C190.5 205.8 190.5 205.8 190.499 205.8C190.498 205.8 190.498 205.8 190.497 205.8C190.497 205.8 190.496 205.8 190.496 205.8C190.495 205.8 190.494 205.8 190.494 205.8C190.493 205.8 190.493 205.8 190.492 205.8C190.492 205.8 190.491 205.8 190.49 205.8C190.49 205.8 190.489 205.8 190.489 205.8C190.488 205.8 190.488 205.8 190.487 205.8C190.486 205.8 190.486 205.8 190.485 205.8C190.485 205.8 190.484 205.8 190.484 205.8C190.483 205.8 190.482 205.8 190.482 205.8C190.481 205.8 190.481 205.8 190.48 205.8C190.48 205.8 190.479 205.8 190.478 205.8C190.478 205.8 190.477 205.8 190.477 205.8C190.476 205.8 190.476 205.8 190.475 205.8C190.475 205.8 190.474 205.8 190.473 205.8C190.473 205.8 190.472 205.8 190.472 205.8C190.471 205.8 190.471 205.8 190.47 205.8C190.469 205.8 190.469 205.8 190.468 205.8C190.468 205.8 190.467 205.8 190.467 205.8C190.466 205.8 190.465 205.8 190.465 205.8C190.464 205.8 190.464 205.8 190.463 205.8C190.463 205.8 190.462 205.8 190.461 205.8C190.461 205.8 190.46 205.8 190.46 205.8C190.459 205.8 190.459 205.8 190.458 205.8C190.457 205.8 190.457 205.8 190.456 205.8C190.456 205.8 190.455 205.8 190.455 205.8C190.454 205.8 190.453 205.8 190.453 205.8C190.452 205.8 190.452 205.8 190.451 205.8C190.451 205.8 190.45 205.8 190.449 205.8C190.449 205.8 190.448 205.8 190.448 205.8C190.447 205.8 190.447 205.8 190.446 205.8C190.445 205.8 190.445 205.8 190.444 205.8C190.444 205.8 190.443 205.8 190.443 205.8C190.442 205.8 190.441 205.8 190.441 205.8C190.44 205.8 190.44 205.8 190.439 205.8C190.439 205.8 190.438 205.8 190.437 205.8C190.437 205.8 190.436 205.8 190.436 205.8C190.435 205.8 190.435 205.8 190.434 205.8C190.433 205.8 190.433 205.8 190.432 205.8C190.432 205.8 190.431 205.8 190.431 205.8C190.43 205.8 190.43 205.8 190.429 205.8C190.428 205.8 190.428 205.8 190.427 205.8C190.427 205.8 190.426 205.8 190.426 205.8C190.425 205.8 190.424 205.8 190.424 205.8C190.423 205.8 190.423 205.8 190.422 205.8C190.422 205.8 190.421 205.8 190.42 205.8C190.42 205.8 190.419 205.8 190.419 205.8C190.418 205.8 190.418 205.8 190.417 205.8C190.416 205.8 190.416 205.8 190.415 205.8C190.415 205.8 190.414 205.8 190.414 205.8C190.413 205.8 190.412 205.8 190.412 205.8C190.411 205.8 190.411 205.8 190.41 205.8C190.41 205.8 190.409 205.8 190.408 205.8C190.408 205.8 190.407 205.8 190.407 205.8C190.406 205.8 190.406 205.8 190.405 205.8C190.404 205.8 190.404 205.8 190.403 205.8C190.403 205.8 190.402 205.8 190.402 205.8C190.401 205.8 190.4 205.8 190.4 205.8C190.399 205.8 190.399 205.8 190.398 205.8C190.398 205.8 190.397 205.8 190.396 205.8C190.396 205.8 190.395 205.8 190.395 205.8C190.394 205.8 190.394 205.8 190.393 205.8C190.392 205.8 190.392 205.8 190.391 205.8C190.391 205.8 190.39 205.8 190.39 205.8C190.389 205.8 190.388 205.8 190.388 205.8C190.387 205.8 190.387 205.8 190.386 205.8C190.386 205.8 190.385 205.8 190.384 205.8C190.384 205.8 190.383 205.8 190.383 205.8C190.382 205.8 190.382 205.8 190.381 205.8C190.381 205.8 190.38 205.8 190.379 205.8C190.379 205.8 190.378 205.8 190.378 205.8C190.377 205.8 190.377 205.8 190.376 205.8C190.375 205.8 190.375 205.8 190.374 205.8C190.374 205.8 190.373 205.8 190.373 205.8C190.372 205.8 190.371 205.8 190.371 205.8C190.37 205.8 190.37 205.8 190.369 205.8C190.369 205.8 190.368 205.8 190.367 205.8C190.367 205.8 190.366 205.8 190.366 205.8C190.365 205.8 190.365 205.8 190.364 205.8C190.363 205.8 190.363 205.8 190.362 205.8C190.362 205.8 190.361 205.8 190.361 205.8C190.36 205.8 190.359 205.8 190.359 205.8C190.358 205.8 190.358 205.8 190.357 205.8C190.357 205.8 190.356 205.8 190.355 205.8C190.355 205.8 190.354 205.8 190.354 205.8C190.353 205.8 190.353 205.8 190.352 205.8C190.351 205.8 190.351 205.8 190.35 205.8C190.35 205.8 190.349 205.8 190.349 205.8C190.348 205.8 190.347 205.8 190.347 205.8C190.346 205.8 190.346 205.8 190.345 205.8C190.345 205.8 190.344 205.8 190.343 205.8C190.343 205.8 190.342 205.8 190.342 205.8C190.341 205.8 190.341 205.8 190.34 205.8C190.339 205.8 190.339 205.8 190.338 205.8C190.338 205.8 190.337 205.8 190.337 205.8C190.336 205.8 190.336 205.8 190.335 205.8C190.334 205.8 190.334 205.8 190.333 205.8C190.333 205.8 190.332 205.8 190.332 205.8C190.331 205.8 190.33 205.8 190.33 205.8C190.329 205.8 190.329 205.8 190.328 205.8C190.328 205.8 190.327 205.8 190.326 205.8C190.326 205.8 190.325 205.8 190.325 205.8C190.324 205.8 190.324 205.8 190.323 205.8C190.322 205.8 190.322 205.8 190.321 205.8C190.321 205.8 190.32 205.8 190.32 205.8C190.319 205.8 190.318 205.8 190.318 205.8C190.317 205.8 190.317 205.8 190.316 205.8C190.316 205.8 190.315 205.8 190.314 205.8C190.314 205.8 190.313 205.8 190.313 205.8C190.312 205.8 190.312 205.8 190.311 205.8C190.31 205.8 190.31 205.8 190.309 205.8C190.309 205.8 190.308 205.8 190.308 205.8C190.307 205.8 190.306 205.8 190.306 205.8C190.305 205.8 190.305 205.8 190.304 205.8C190.304 205.8 190.303 205.8 190.302 205.8C190.302 205.8 190.301 205.8 190.301 205.8C190.3 205.8 190.3 205.8 190.299 205.8C190.298 205.8 190.298 205.8 190.297 205.8C190.297 205.8 190.296 205.8 190.296 205.8C190.295 205.8 190.294 205.8 190.294 205.8C190.293 205.8 190.293 205.8 190.292 205.8C190.292 205.8 190.291 205.8 190.291 205.8C190.29 205.8 190.289 205.8 190.289 205.8C190.288 205.8 190.288 205.8 190.287 205.8C190.287 205.8 190.286 205.8 190.285 205.8C190.285 205.8 190.284 205.8 190.284 205.8C190.283 205.8 190.283 205.8 190.282 205.8C190.281 205.8 190.281 205.8 190.28 205.8C190.28 205.8 190.279 205.8 190.279 205.8C190.278 205.8 190.277 205.8 190.277 205.8C190.276 205.8 190.276 205.8 190.275 205.8C190.275 205.8 190.274 205.8 190.273 205.8C190.273 205.8 190.272 205.8 190.272 205.8C190.271 205.8 190.271 205.8 190.27 205.8C190.269 205.8 190.269 205.8 190.268 205.8C190.268 205.8 190.267 205.8 190.267 205.8C190.266 205.8 190.265 205.8 190.265 205.8C190.264 205.8 190.264 205.8 190.263 205.8C190.263 205.8 190.262 205.8 190.261 205.8C190.261 205.8 190.26 205.8 190.26 205.8C190.259 205.8 190.259 205.8 190.258 205.8C190.257 205.8 190.257 205.8 190.256 205.8C190.256 205.8 190.255 205.8 190.255 205.8C190.254 205.8 190.253 205.8 190.253 205.8C190.252 205.8 190.252 205.8 190.251 205.8C190.251 205.8 190.25 205.8 190.249 205.8C190.249 205.8 190.248 205.8 190.248 205.8C190.247 205.8 190.247 205.8 190.246 205.8C190.246 205.8 190.245 205.8 190.244 205.8C190.244 205.8 190.243 205.8 190.243 205.8C190.242 205.8 190.242 205.8 190.241 205.8C190.24 205.8 190.24 205.8 190.239 205.8C190.239 205.8 190.238 205.8 190.238 205.8C190.237 205.8 190.236 205.8 190.236 205.8C190.235 205.8 190.235 205.8 190.234 205.8C190.234 205.8 190.233 205.8 190.232 205.8C190.232 205.8 190.231 205.8 190.231 205.8C190.23 205.8 190.23 205.8 190.229 205.8C190.228 205.8 190.228 205.8 190.227 205.8C190.227 205.8 190.226 205.8 190.226 205.8C190.225 205.8 190.224 205.8 190.224 205.8C190.223 205.8 190.223 205.8 190.222 205.8C190.222 205.8 190.221 205.8 190.22 205.8C190.22 205.8 190.219 205.8 190.219 205.8C190.218 205.8 190.218 205.8 190.217 205.8C190.216 205.8 190.216 205.8 190.215 205.8C190.215 205.8 190.214 205.8 190.214 205.8C190.213 205.8 190.212 205.8 190.212 205.8C190.211 205.8 190.211 205.8 190.21 205.8C190.21 205.8 190.209 205.8 190.208 205.8C190.208 205.8 190.207 205.8 190.207 205.8C190.206 205.8 190.206 205.8 190.205 205.8C190.204 205.8 190.204 205.8 190.203 205.8C190.203 205.8 190.202 205.8 190.202 205.8C190.201 205.8 190.2 205.8 190.2 205.8C190.199 205.8 190.199 205.8 190.198 205.8C190.198 205.8 190.197 205.8 190.197 205.8C190.196 205.8 190.195 205.8 190.195 205.8C190.194 205.8 190.194 205.8 190.193 205.8C190.193 205.8 190.192 205.8 190.191 205.8C190.191 205.8 190.19 205.8 190.19 205.8C190.189 205.8 190.189 205.8 190.188 205.8C190.187 205.8 190.187 205.8 190.186 205.8C190.186 205.8 190.185 205.8 190.185 205.8C190.184 205.8 190.183 205.8 190.183 205.8C190.182 205.8 190.182 205.8 190.181 205.8C190.181 205.8 190.18 205.8 190.179 205.8C190.179 205.8 190.178 205.8 190.178 205.8C190.177 205.8 190.177 205.8 190.176 205.8C190.175 205.8 190.175 205.8 190.174 205.8C190.174 205.8 190.173 205.8 190.173 205.8C190.172 205.8 190.171 205.8 190.171 205.8C190.17 205.8 190.17 205.8 190.169 205.8C190.169 205.8 190.168 205.8 190.167 205.8C190.167 205.8 190.166 205.8 190.166 205.8C190.165 205.8 190.165 205.8 190.164 205.8C190.163 205.8 190.163 205.8 190.162 205.8C190.162 205.8 190.161 205.8 190.161 205.8C190.16 205.8 190.159 205.8 190.159 205.8C190.158 205.8 190.158 205.8 190.157 205.8C190.157 205.8 190.156 205.8 190.155 205.8C190.155 205.8 190.154 205.8 190.154 205.8C190.153 205.8 190.153 205.8 190.152 205.8C190.152 205.8 190.151 205.8 190.15 205.8C190.15 205.8 190.149 205.8 190.149 205.8C190.148 205.8 190.148 205.8 190.147 205.8C190.146 205.8 190.146 205.8 190.145 205.8C190.145 205.8 190.144 205.8 190.144 205.8C190.143 205.8 190.142 205.8 190.142 205.8C190.141 205.8 190.141 205.8 190.14 205.8C190.14 205.8 190.139 205.8 190.138 205.8C190.138 205.8 190.137 205.8 190.137 205.8C190.136 205.8 190.136 205.8 190.135 205.8C190.134 205.8 190.134 205.8 190.133 205.8C190.133 205.8 190.132 205.8 190.132 205.8C190.131 205.8 190.13 205.8 190.13 205.8C190.129 205.8 190.129 205.8 190.128 205.8C190.128 205.8 190.127 205.8 190.126 205.8C190.126 205.8 190.125 205.8 190.125 205.8C190.124 205.8 190.124 205.8 190.123 205.8C190.122 205.8 190.122 205.8 190.121 205.8C190.121 205.8 190.12 205.8 190.12 205.8C190.119 205.8 190.118 205.8 190.118 205.8C190.117 205.8 190.117 205.8 190.116 205.8C190.116 205.8 190.115 205.8 190.114 205.8C190.114 205.8 190.113 205.8 190.113 205.8C190.112 205.8 190.112 205.8 190.111 205.8C190.11 205.8 190.11 205.8 190.109 205.8C190.109 205.8 190.108 205.8 190.108 205.8C190.107 205.8 190.107 205.8 190.106 205.8C190.105 205.8 190.105 205.8 190.104 205.8C190.104 205.8 190.103 205.8 190.103 205.8C190.102 205.8 190.101 205.8 190.101 205.8C190.1 205.8 190.1 205.8 190.099 205.8C190.099 205.8 190.098 205.8 190.097 205.8C190.097 205.8 190.096 205.8 190.096 205.8C190.095 205.8 190.095 205.8 190.094 205.8C190.093 205.8 190.093 205.8 190.092 205.8C190.092 205.8 190.091 205.8 190.091 205.8C190.09 205.8 190.089 205.8 190.089 205.8C190.088 205.8 190.088 205.8 190.087 205.8C190.087 205.8 190.086 205.8 190.085 205.8C190.085 205.8 190.084 205.8 190.084 205.8C190.083 205.8 190.083 205.8 190.082 205.8C190.081 205.8 190.081 205.8 190.08 205.8C190.08 205.8 190.079 205.8 190.079 205.8C190.078 205.8 190.077 205.8 190.077 205.8C190.076 205.8 190.076 205.8 190.075 205.8C190.075 205.8 190.074 205.8 190.073 205.8C190.073 205.8 190.072 205.8 190.072 205.8C190.071 205.8 190.071 205.8 190.07 205.8C190.069 205.8 190.069 205.8 190.068 205.8C190.068 205.8 190.067 205.8 190.067 205.8C190.066 205.8 190.065 205.8 190.065 205.8C190.064 205.8 190.064 205.8 190.063 205.8C190.063 205.8 190.062 205.8 190.062 205.8C190.061 205.8 190.06 205.8 190.06 205.8C190.059 205.8 190.059 205.8 190.058 205.8C190.058 205.8 190.057 205.8 190.056 205.8C190.056 205.8 190.055 205.8 190.055 205.8C190.054 205.8 190.054 205.8 190.053 205.8C190.052 205.8 190.052 205.8 190.051 205.8C190.051 205.8 190.05 205.8 190.05 205.8C190.049 205.8 190.048 205.8 190.048 205.8C190.047 205.8 190.047 205.8 190.046 205.8C190.046 205.8 190.045 205.8 190.044 205.8C190.044 205.8 190.043 205.8 190.043 205.8C190.042 205.8 190.042 205.8 190.041 205.8C190.04 205.8 190.04 205.8 190.039 205.8C190.039 205.8 190.038 205.8 190.038 205.8C190.037 205.8 190.036 205.8 190.036 205.8C190.035 205.8 190.035 205.8 190.034 205.8C190.034 205.8 190.033 205.8 190.032 205.8C190.032 205.8 190.031 205.8 190.031 205.8C190.03 205.8 190.03 205.8 190.029 205.8C190.028 205.8 190.028 205.8 190.027 205.8C190.027 205.8 190.026 205.8 190.026 205.8C190.025 205.8 190.024 205.8 190.024 205.8C190.023 205.8 190.023 205.8 190.022 205.8C190.022 205.8 190.021 205.8 190.02 205.8C190.02 205.8 190.019 205.8 190.019 205.8C190.018 205.8 190.018 205.8 190.017 205.8C190.016 205.8 190.016 205.8 190.015 205.8C190.015 205.8 190.014 205.8 190.014 205.8C190.013 205.8 190.013 205.8 190.012 205.8C190.011 205.8 190.011 205.8 190.01 205.8C190.01 205.8 190.009 205.8 190.009 205.8C190.008 205.8 190.007 205.8 190.007 205.8C190.006 205.8 190.006 205.8 190.005 205.8C190.005 205.8 190.004 205.8 190.003 205.8C190.003 205.8 190.002 205.8 190.002 205.8C190.001 205.8 190.001 205.8 190 205.8C189.999 205.8 189.999 205.8 189.998 205.8C189.998 205.8 189.997 205.8 189.997 205.8C189.996 205.8 189.995 205.8 189.995 205.8C189.994 205.8 189.994 205.8 189.993 205.8C189.993 205.8 189.992 205.8 189.991 205.8C189.991 205.8 189.99 205.8 189.99 205.8C189.989 205.8 189.989 205.8 189.988 205.8C189.987 205.8 189.987 205.8 189.986 205.8C189.986 205.8 189.985 205.8 189.985 205.8C189.984 205.8 189.983 205.8 189.983 205.8C189.982 205.8 189.982 205.8 189.981 205.8C189.981 205.8 189.98 205.8 189.979 205.8C189.979 205.8 189.978 205.8 189.978 205.8C189.977 205.8 189.977 205.8 189.976 205.8C189.975 205.8 189.975 205.8 189.974 205.8C189.974 205.8 189.973 205.8 189.973 205.8C189.972 205.8 189.971 205.8 189.971 205.8C189.97 205.8 189.97 205.8 189.969 205.8C189.969 205.8 189.968 205.8 189.968 205.8V206.2ZM190.843 206.2C195.575 206.2 199.554 205.31 202.768 203.518C205.985 201.726 208.424 199.036 210.086 195.459L209.724 195.291C208.094 198.797 205.711 201.42 202.573 203.169C199.433 204.919 195.527 205.8 190.843 205.8V206.2ZM210.087 195.458C210.964 193.536 211.717 191.655 212.344 189.815L211.966 189.685C211.343 191.512 210.596 193.381 209.723 195.292L210.087 195.458ZM212.343 189.817C213.009 187.944 213.655 186.217 214.279 184.636L213.906 184.489C213.281 186.075 212.634 187.806 211.967 189.683L212.343 189.817ZM214.277 184.64C214.934 183.08 215.791 181.881 216.843 181.031L216.592 180.719C215.477 181.619 214.585 182.878 213.908 184.485L214.277 184.64ZM216.718 181.075H220.968V180.675H216.718V181.075ZM220.768 180.875V212H221.168V180.875H220.768ZM220.968 211.8H189.155V212.2H220.968V211.8ZM189.355 212V205.938H188.955V212H189.355ZM183.53 211.8H153.843V212.2H183.53V211.8ZM154.043 212V207.375H153.643V212H154.043ZM153.918 207.56C155.033 207.106 156.104 206.777 157.132 206.571L157.053 206.179C155.998 206.39 154.902 206.727 153.767 207.19L153.918 207.56ZM157.137 206.57C158.233 206.317 159.207 205.979 160.057 205.554L159.878 205.196C159.061 205.605 158.118 205.933 157.048 206.18L157.137 206.57ZM160.055 205.555C161.028 205.079 161.764 204.383 162.253 203.469C162.741 202.558 162.98 201.44 162.98 200.125H162.58C162.58 201.393 162.35 202.442 161.901 203.281C161.453 204.117 160.782 204.754 159.88 205.195L160.055 205.555ZM162.98 200.125V135.188H162.58V200.125H162.98ZM162.98 135.188C162.98 132.51 162.018 130.655 160.055 129.695L159.88 130.055C161.667 130.929 162.58 132.615 162.58 135.188H162.98ZM160.057 129.696C159.205 129.27 158.228 128.952 157.13 128.741L157.055 129.134C158.123 129.339 159.064 129.647 159.878 130.054L160.057 129.696ZM157.139 128.743C156.109 128.496 155.035 128.145 153.918 127.69L153.767 128.06C154.9 128.522 155.993 128.879 157.046 129.132L157.139 128.743ZM154.043 127.875V123.188H153.643V127.875H154.043ZM153.843 123.388H192.905V122.987H153.843V123.388ZM192.705 123.188V127.875H193.105V123.188H192.705ZM192.836 127.687C191.593 128.143 190.414 128.494 189.299 128.742L189.386 129.133C190.521 128.881 191.717 128.524 192.974 128.063L192.836 127.687ZM189.306 128.741C188.167 128.952 187.169 129.269 186.316 129.696L186.494 130.054C187.308 129.647 188.268 129.34 189.379 129.134L189.306 128.741ZM186.319 129.695C185.324 130.17 184.573 130.871 184.073 131.795C183.574 132.718 183.33 133.852 183.33 135.188H183.73C183.73 133.898 183.965 132.834 184.425 131.986C184.883 131.14 185.569 130.497 186.491 130.055L186.319 129.695ZM183.33 135.188V212H183.73V135.188H183.33ZM237.152 131.75L236.985 131.859L236.991 131.868L237.152 131.75ZM235.34 129.938L235.256 130.119L235.261 130.121L235.34 129.938ZM231.402 128.812L231.357 129.007L231.359 129.008L231.402 128.812ZM229.215 127.875H229.015V127.987L229.111 128.046L229.215 127.875ZM229.215 123.188V122.987H229.015V123.188H229.215ZM267.652 123.188H267.852V122.987H267.652V123.188ZM267.652 127.875L267.757 128.046L267.852 127.987V127.875H267.652ZM260.152 131.25L260.316 131.365L260.319 131.361L260.152 131.25ZM259.777 203.625L259.61 203.734L259.616 203.743L259.777 203.625ZM261.59 205.375L261.506 205.557L261.511 205.559L261.59 205.375ZM263.465 206L263.416 206.194L263.424 206.196L263.465 206ZM267.652 207.375H267.852V207.265L267.759 207.206L267.652 207.375ZM267.652 212V212.2H267.852V212H267.652ZM229.215 212H229.015V212.2H229.215V212ZM229.215 207.375L229.14 207.19L229.015 207.241V207.375H229.215ZM232.465 206.375L232.504 206.571L232.51 206.57L232.465 206.375ZM235.34 205.375L235.252 205.195L235.251 205.196L235.34 205.375ZM238.352 138.25C238.352 136.536 238.269 135.129 238.1 134.032C237.932 132.941 237.677 132.131 237.314 131.632L236.991 131.868C237.295 132.286 237.539 133.017 237.705 134.093C237.869 135.162 237.952 136.547 237.952 138.25H238.352ZM237.32 131.641C236.688 130.672 236.057 130.027 235.419 129.754L235.261 130.121C235.789 130.348 236.367 130.911 236.985 131.859L237.32 131.641ZM235.424 129.756C234.869 129.5 234.253 129.288 233.576 129.118L233.479 129.507C234.135 129.671 234.727 129.875 235.256 130.119L235.424 129.756ZM233.576 129.118C232.907 128.951 232.197 128.784 231.446 128.617L231.359 129.008C232.108 129.174 232.814 129.34 233.479 129.507L233.576 129.118ZM231.448 128.618C230.764 128.457 230.055 128.154 229.319 127.704L229.111 128.046C229.875 128.513 230.624 128.835 231.357 129.007L231.448 128.618ZM229.415 127.875V123.188H229.015V127.875H229.415ZM229.215 123.388H267.652V122.987H229.215V123.388ZM267.452 123.188V127.875H267.852V123.188H267.452ZM267.548 127.704C266.813 128.154 266.103 128.457 265.419 128.618L265.511 129.007C266.244 128.835 266.992 128.513 267.757 128.046L267.548 127.704ZM265.419 128.618C264.71 128.785 264.022 128.952 263.354 129.118L263.451 129.507C264.117 129.34 264.803 129.174 265.511 129.007L265.419 128.618ZM263.354 129.118C262.677 129.288 262.061 129.5 261.506 129.756L261.674 130.119C262.203 129.875 262.795 129.671 263.451 129.507L263.354 129.118ZM261.506 129.756C260.923 130.025 260.418 130.491 259.986 131.139L260.319 131.361C260.72 130.759 261.173 130.35 261.674 130.119L261.506 129.756ZM259.989 131.135C259.528 131.793 259.193 132.72 258.972 133.901C258.75 135.083 258.64 136.534 258.64 138.25H259.04C259.04 136.549 259.149 135.125 259.365 133.974C259.581 132.822 259.902 131.957 260.316 131.365L259.989 131.135ZM258.64 138.25V197H259.04V138.25H258.64ZM258.64 197C258.64 198.734 258.718 200.161 258.876 201.278C259.034 202.389 259.273 203.217 259.61 203.734L259.945 203.516C259.657 203.075 259.428 202.32 259.272 201.222C259.118 200.131 259.04 198.724 259.04 197H258.64ZM259.616 203.743C260.287 204.666 260.916 205.284 261.506 205.557L261.674 205.193C261.18 204.966 260.601 204.417 259.939 203.507L259.616 203.743ZM261.511 205.559C262.105 205.813 262.74 206.025 263.416 206.194L263.514 205.806C262.856 205.642 262.242 205.437 261.669 205.191L261.511 205.559ZM263.424 206.196C265.422 206.612 266.787 207.065 267.546 207.544L267.759 207.206C266.935 206.685 265.508 206.221 263.506 205.804L263.424 206.196ZM267.452 207.375V212H267.852V207.375H267.452ZM267.652 211.8H229.215V212.2H267.652V211.8ZM229.415 212V207.375H229.015V212H229.415ZM229.29 207.56C230.405 207.106 231.477 206.777 232.504 206.571L232.426 206.179C231.37 206.39 230.275 206.727 229.14 207.19L229.29 207.56ZM232.51 206.57C233.606 206.317 234.58 205.979 235.429 205.554L235.251 205.196C234.434 205.605 233.491 205.933 232.42 206.18L232.51 206.57ZM235.428 205.555C236.401 205.079 237.136 204.383 237.626 203.469C238.114 202.558 238.352 201.44 238.352 200.125H237.952C237.952 201.393 237.722 202.442 237.273 203.281C236.825 204.117 236.154 204.754 235.252 205.195L235.428 205.555ZM238.352 200.125V138.25H237.952V200.125H238.352Z" fill="#E30300" mask="url(#path-1-outside-1_187_127)"/>
<path d="M300 28L276 9.5H342L331 52.5L364.5 9.5H402L395 52.5L423.5 9.5H460L389 100.5H352L357.5 55.5L325 100.5H285L300 28Z" fill="url(#paint1_linear_187_127)"/>
<path d="M49 28L25 9.5H91L80 52.5L113.5 9.5H151L144 52.5L172.5 9.5H209L138 100.5H101L106.5 55.5L74 100.5H34L49 28Z" fill="url(#paint2_linear_187_127)"/>
<path d="M300 28L276 9.5H342L331 52.5L364.5 9.5H402L395 52.5L423.5 9.5H460L389 100.5H352L357.5 55.5L325 100.5H285L300 28Z" stroke="#C30000" stroke-width="4"/>
<path d="M49 28L25 9.5H91L80 52.5L113.5 9.5H151L144 52.5L172.5 9.5H209L138 100.5H101L106.5 55.5L74 100.5H34L49 28Z" stroke="#C30000" stroke-width="4"/>
<circle cx="288" cy="197" r="10" fill="white"/>
<path d="M343.948 208.265C334.825 208.265 327.082 206.54 320.718 203.09C314.432 199.64 309.64 194.81 306.343 188.6C303.047 182.39 301.398 175.107 301.398 166.75C301.398 160.31 302.357 154.522 304.273 149.385C306.267 144.172 309.103 139.763 312.783 136.16C316.54 132.48 321.063 129.643 326.353 127.65C331.72 125.657 337.777 124.66 344.523 124.66C348.663 124.66 352.803 125.12 356.943 126.04C361.083 126.96 365.07 128.493 368.903 130.64C370.513 131.56 371.587 132.748 372.123 134.205C372.737 135.585 372.89 137.08 372.583 138.69C372.353 140.223 371.74 141.603 370.743 142.83C369.823 143.98 368.597 144.747 367.063 145.13C365.607 145.437 363.92 145.13 362.003 144.21C359.473 142.83 356.79 141.833 353.953 141.22C351.117 140.53 348.012 140.185 344.638 140.185C339.195 140.185 334.633 141.22 330.953 143.29C327.273 145.283 324.513 148.273 322.673 152.26C320.91 156.17 320.028 161 320.028 166.75C320.028 175.413 322.098 181.968 326.238 186.415C330.455 190.862 336.665 193.085 344.868 193.085C347.628 193.085 350.465 192.817 353.378 192.28C356.292 191.743 359.167 190.977 362.003 189.98L358.668 197.225V175.145H348.318C346.018 175.145 344.255 174.57 343.028 173.42C341.802 172.27 341.188 170.698 341.188 168.705C341.188 166.635 341.802 165.063 343.028 163.99C344.255 162.84 346.018 162.265 348.318 162.265H366.373C368.673 162.265 370.398 162.878 371.548 164.105C372.775 165.332 373.388 167.095 373.388 169.395V196.075C373.388 198.068 373.005 199.755 372.238 201.135C371.472 202.515 370.168 203.512 368.328 204.125C364.878 205.352 361.007 206.348 356.713 207.115C352.42 207.882 348.165 208.265 343.948 208.265ZM429.3 208.265C420.177 208.265 412.433 206.54 406.07 203.09C399.783 199.64 394.992 194.81 391.695 188.6C388.398 182.39 386.75 175.107 386.75 166.75C386.75 160.31 387.708 154.522 389.625 149.385C391.618 144.172 394.455 139.763 398.135 136.16C401.892 132.48 406.415 129.643 411.705 127.65C417.072 125.657 423.128 124.66 429.875 124.66C434.015 124.66 438.155 125.12 442.295 126.04C446.435 126.96 450.422 128.493 454.255 130.64C455.865 131.56 456.938 132.748 457.475 134.205C458.088 135.585 458.242 137.08 457.935 138.69C457.705 140.223 457.092 141.603 456.095 142.83C455.175 143.98 453.948 144.747 452.415 145.13C450.958 145.437 449.272 145.13 447.355 144.21C444.825 142.83 442.142 141.833 439.305 141.22C436.468 140.53 433.363 140.185 429.99 140.185C424.547 140.185 419.985 141.22 416.305 143.29C412.625 145.283 409.865 148.273 408.025 152.26C406.262 156.17 405.38 161 405.38 166.75C405.38 175.413 407.45 181.968 411.59 186.415C415.807 190.862 422.017 193.085 430.22 193.085C432.98 193.085 435.817 192.817 438.73 192.28C441.643 191.743 444.518 190.977 447.355 189.98L444.02 197.225V175.145H433.67C431.37 175.145 429.607 174.57 428.38 173.42C427.153 172.27 426.54 170.698 426.54 168.705C426.54 166.635 427.153 165.063 428.38 163.99C429.607 162.84 431.37 162.265 433.67 162.265H451.725C454.025 162.265 455.75 162.878 456.9 164.105C458.127 165.332 458.74 167.095 458.74 169.395V196.075C458.74 198.068 458.357 199.755 457.59 201.135C456.823 202.515 455.52 203.512 453.68 204.125C450.23 205.352 446.358 206.348 442.065 207.115C437.772 207.882 433.517 208.265 429.3 208.265Z" fill="white"/>
<path d="M211.5 80C212.007 81.8072 214 83.5 214 83.5L204.998 104.56C204.998 104.56 197.508 103.25 193 101.5C189.112 99.9909 186.66 99.2012 183.498 96.6239C180.273 93.9956 178.664 92.0117 176.954 88.2215C175.056 84.0134 174.833 81.16 175.085 76.5514C175.342 71.8257 176.721 69.3233 178.356 64.8814C181.685 55.8408 190.041 43.4085 190.041 43.4085C190.041 43.4085 196.502 33.1888 201.727 27.5372C206.818 22.0304 209.802 18.8201 216.216 14.9336C222.43 11.1685 226.042 9.23942 233 7.54838C240.647 5.68999 245.51 5.65513 253.131 6.64924C259.372 7.46331 262.619 8.15815 268 10.5563C271.432 12.0862 273.973 13.6826 276.512 15.8672C280.543 19.3366 282.637 22.8064 283.523 27.5372C284.193 31.1211 284.124 34.1241 283.523 38.2737C282.779 43.4085 281.158 47.4266 279.316 52.2777C277.055 58.2315 276.248 60.0061 272.772 65.815C268.407 73.1096 265.891 77.2796 260.152 83.5534C254.917 89.2762 251.685 92.3719 245.195 96.6239C241.371 99.1299 239.169 100.553 234.912 102.226C228.683 104.673 224.41 105.103 218.086 105.493C213.527 105.774 208 105.056 208 105.056L215.281 84.0203C215.281 84.0203 218.601 84.2345 220.423 84.0203C222.143 83.818 222.607 83.4843 223.695 82.6199C224.609 81.8931 225.564 80.2859 225.564 80.2859L247.065 38.2737C247.065 38.2737 248.697 35.0914 248.467 33.6057C248.092 31.1819 247.454 30.3684 245.196 29.4044C241.898 27.9967 237.717 28.9377 235.38 31.7385C233.043 34.5393 222.76 53.9116 222.76 53.9116L212.477 73.7507C212.477 73.7507 210.909 77.8937 211.5 80Z" fill="url(#paint3_linear_187_127)" stroke="#C30000" stroke-width="3.5"/>
<path d="M216 103.5L219.5 86C219.5 86 215.491 85.9956 213.5 85C212.241 84.3703 210.5 82.5 210.5 82.5L199 101.5C199 101.5 203.224 102.383 206 103C210.5 104 216 103.5 216 103.5Z" fill="url(#paint4_linear_187_127)"/>
</g>
<defs>
<linearGradient id="paint0_linear_187_127" x1="150" y1="124" x2="150" y2="228" gradientUnits="userSpaceOnUse">
<stop stop-color="#EAEAEA"/>
<stop offset="0.06" stop-color="#00F057"/>
<stop offset="0.545" stop-color="#00F057"/>
<stop offset="1" stop-color="#00F057"/>
</linearGradient>
<linearGradient id="paint1_linear_187_127" x1="247" y1="3" x2="243.5" y2="108" gradientUnits="userSpaceOnUse">
<stop stop-color="#F7FD3B"/>
<stop offset="1" stop-color="#FEB202"/>
</linearGradient>
<linearGradient id="paint2_linear_187_127" x1="247" y1="3" x2="243.5" y2="108" gradientUnits="userSpaceOnUse">
<stop stop-color="#F7FD3B"/>
<stop offset="1" stop-color="#FEB202"/>
</linearGradient>
<linearGradient id="paint3_linear_187_127" x1="229.5" y1="6.54883" x2="229.5" y2="105.549" gradientUnits="userSpaceOnUse">
<stop stop-color="#F7FF3D"/>
<stop offset="1" stop-color="#FFB000"/>
</linearGradient>
<linearGradient id="paint4_linear_187_127" x1="209.25" y1="82.5" x2="209.25" y2="103.625" gradientUnits="userSpaceOnUse">
<stop stop-color="#FDC20E"/>
<stop offset="1" stop-color="#FEB201"/>
</linearGradient>
<clipPath id="clip0_187_127">
<rect width="484" height="221" fill="white"/>
</clipPath>
</defs>
</svg>
