<svg width="123" height="100" viewBox="0 0 123 100" fill="none" xmlns="http://www.w3.org/2000/svg">
<g clip-path="url(#clip0_191_129)">
<path d="M12.5 88.9818V12.2586C12.5 11.4995 12.0348 10.818 11.3279 10.5413C9.38745 9.78205 9.99823 6.89119 12.08 6.98169L12.5 6.99995H24.5C25.6046 6.99995 26.5 7.89538 26.5 8.99995V25.4958L27.5 63.4918V85.3944C27.5 85.7893 27.6169 86.1753 27.8359 86.5038L28.5556 87.5835C29.1 88.3999 28.9784 89.5027 28.1874 90.0835C23.3601 93.6281 16.7458 94.1699 12.9681 94.149C11.547 94.1412 10.7556 92.6399 11.4457 91.3977L12.2483 89.953C12.4134 89.6559 12.5 89.3216 12.5 88.9818Z" fill="#44BE4C"/>
<path d="M60.0787 12.9583L59.5106 12.2279C58.4888 10.9142 59.425 9.00003 61.0893 9.00003H74.9107C76.575 9.00003 77.5112 10.9142 76.4894 12.2279L75.9213 12.9583C75.6482 13.3094 75.5 13.7415 75.5 14.1862V32V37.492C75.5 38.5966 76.3954 39.492 77.5 39.492H94.5C95.6046 39.492 96.5 38.5966 96.5 37.492V14.1056C96.5 13.7107 96.3831 13.3247 96.1641 12.9962L95.5729 12.1094C94.6869 10.7803 95.6396 9.00003 97.237 9.00003H110.763C112.36 9.00003 113.313 10.7803 112.427 12.1094L111.836 12.9962C111.617 13.3247 111.5 13.7107 111.5 14.1056V83.6798C111.5 84.2102 111.711 84.7189 112.086 85.094L113.086 86.094C114.346 87.3539 113.453 89.5082 111.672 89.5082H96.6612C94.9842 89.5082 94.0519 87.5684 95.0995 86.2588L96.0617 85.0561C96.3454 84.7014 96.5 84.2608 96.5 83.8067V59C96.5 57.8954 95.6046 57 94.5 57H77.5C76.3954 57 75.5 57.8954 75.5 59V83.8778C75.5 84.2881 75.6262 84.6885 75.8615 85.0247L76.9186 86.5348C77.8219 87.8253 76.948 89.6051 75.3745 89.6795L61.5862 90.3306C60.021 90.4046 58.9826 88.7314 59.7436 87.3616L60.2483 86.453C60.4134 86.1559 60.5 85.8216 60.5 85.4818V14.1862C60.5 13.7415 60.3518 13.3094 60.0787 12.9583Z" fill="#44BE4C"/>
<path d="M12.42 6.99999H31.86C38.42 6.99999 43.34 8.76 46.62 12.28C49.9 15.8 51.54 20.96 51.54 27.76V36.04C51.54 42.84 49.9 48 46.62 51.52C43.34 55.04 38.42 56.8 31.86 56.8H25.62V91H12.42V6.99999ZM31.86 44.8C34.02 44.8 35.62 44.2 36.66 43C37.78 41.8 38.34 39.76 38.34 36.88V26.92C38.34 24.04 37.78 22 36.66 20.8C35.62 19.6 34.02 19 31.86 19H25.62V44.8H31.86Z" fill="#44BE4C"/>
</g>
<defs>
<clipPath id="clip0_191_129">
<rect width="123" height="100" fill="white"/>
</clipPath>
</defs>
</svg>
