<svg width="452" height="121" viewBox="0 0 452 121" fill="none" xmlns="http://www.w3.org/2000/svg">
<g clip-path="url(#clip0_180_121)">
<path d="M120.174 113.494V112.36C122.118 112.36 123.252 112 123.576 111.28V93.0281C121.344 92.8481 120.21 92.7581 120.174 92.7581V91.5161C120.858 91.5161 122.19 91.1381 124.17 90.3821C126.186 89.5901 127.608 89.1941 128.436 89.1941V91.5701C130.236 89.9861 132.018 89.1941 133.782 89.1941C135.402 89.1941 136.752 89.5001 137.832 90.1121C138.948 90.7241 139.506 91.4081 139.506 92.1641C139.506 93.4601 138.786 94.1081 137.346 94.1081C136.59 94.1081 135.906 93.6041 135.294 92.5961C134.682 91.5521 133.98 91.0301 133.188 91.0301C131.784 91.0301 130.2 91.8041 128.436 93.3521V111.28C128.76 112 129.894 112.36 131.838 112.36V113.494H120.174ZM157.577 100.48C157.613 103.504 158.477 106.186 160.169 108.526C161.897 110.83 163.823 111.982 165.947 111.982C169.079 111.982 171.599 110.794 173.507 108.418L174.803 109.066C173.759 110.794 172.391 112.054 170.699 112.846C169.043 113.638 166.847 114.034 164.111 114.034C162.743 114.034 161.429 113.836 160.169 113.44C158.909 113.008 157.667 112.324 156.443 111.388C155.219 110.416 154.247 108.994 153.527 107.122C152.807 105.25 152.447 103.018 152.447 100.426C152.447 97.2581 153.419 94.5941 155.363 92.4341C157.343 90.2741 160.079 89.1941 163.571 89.1941C167.387 89.1941 170.231 90.2741 172.103 92.4341C173.975 94.5581 174.911 97.2401 174.911 100.48H157.577ZM157.631 98.8061H169.619C169.403 96.2141 168.845 94.2341 167.945 92.8661C167.081 91.4981 165.551 90.8141 163.355 90.8141C162.095 90.8141 160.871 91.5521 159.683 93.0281C158.531 94.5041 157.847 96.4301 157.631 98.8061ZM197.609 89.7341V90.8681C196.565 90.8681 195.809 90.9401 195.341 91.0841L201.767 106.906L207.923 91.4621C207.419 91.0661 206.411 90.8681 204.899 90.8681V89.7341H213.755V90.8681C211.775 90.8681 210.659 91.2101 210.407 91.8941L201.767 113.494H199.121L190.535 91.9481C190.211 91.2281 189.077 90.8681 187.133 90.8681V89.7341H197.609ZM225.98 113.494V112.36C227.924 112.36 229.058 112 229.382 111.28V93.0281C227.15 92.8481 226.016 92.7581 225.98 92.7581V91.5161C226.664 91.5161 227.996 91.1381 229.976 90.3821C231.992 89.5901 233.414 89.1941 234.242 89.1941V111.28C234.566 112 235.7 112.36 237.644 112.36V113.494H225.98ZM231.65 85.7381C230.858 85.7381 230.156 85.4501 229.544 84.8741C228.968 84.2621 228.68 83.4881 228.68 82.5521C228.68 81.7241 228.932 81.0041 229.436 80.3921C229.976 79.7801 230.66 79.4741 231.488 79.4741C232.28 79.4741 232.982 79.7801 233.594 80.3921C234.206 81.0041 234.512 81.7781 234.512 82.7141C234.512 83.5421 234.242 84.2621 233.702 84.8741C233.162 85.4501 232.478 85.7381 231.65 85.7381ZM256.528 100.48C256.564 103.504 257.428 106.186 259.12 108.526C260.848 110.83 262.774 111.982 264.898 111.982C268.03 111.982 270.55 110.794 272.458 108.418L273.754 109.066C272.71 110.794 271.342 112.054 269.65 112.846C267.994 113.638 265.798 114.034 263.062 114.034C261.694 114.034 260.38 113.836 259.12 113.44C257.86 113.008 256.618 112.324 255.394 111.388C254.17 110.416 253.198 108.994 252.478 107.122C251.758 105.25 251.398 103.018 251.398 100.426C251.398 97.2581 252.37 94.5941 254.314 92.4341C256.294 90.2741 259.03 89.1941 262.522 89.1941C266.338 89.1941 269.182 90.2741 271.054 92.4341C272.926 94.5581 273.862 97.2401 273.862 100.48H256.528ZM256.582 98.8061H268.57C268.354 96.2141 267.796 94.2341 266.896 92.8661C266.032 91.4981 264.502 90.8141 262.306 90.8141C261.046 90.8141 259.822 91.5521 258.634 93.0281C257.482 94.5041 256.798 96.4301 256.582 98.8061ZM296.56 89.7341V90.8681C295.516 90.8681 294.76 90.9401 294.292 91.0841L300.718 106.906L305.578 94.7561L304.444 91.9481C304.12 91.2281 302.986 90.8681 301.042 90.8681V89.7341H311.518V90.8681C310.474 90.8681 309.718 90.9401 309.25 91.0841L315.676 106.906L321.832 91.4621C321.328 91.0661 320.32 90.8681 318.808 90.8681V89.7341H327.664V90.8681C325.72 90.8681 324.604 91.2101 324.316 91.8941L315.676 113.494H313.03L306.874 98.0501L300.718 113.494H298.072L289.486 91.9481C289.162 91.2281 288.028 90.8681 286.084 90.8681V89.7341H296.56Z" fill="#E8E8E8"/>
<path d="M9.5 90.0482V12.2588C9.5 11.4997 9.03481 10.8181 8.32789 10.5415C6.38745 9.78221 6.99823 6.89135 9.07997 6.98185L9.5 7.00011H21.5C22.6046 7.00011 23.5 7.89554 23.5 9.00011V25.4959L24.5 63.492V85.6635C24.5 86.1939 24.7107 86.7026 25.0858 87.0777L26.0324 88.0244C26.834 88.8259 26.8127 90.1381 25.9007 90.8113C21.0099 94.4216 13.8759 96.3983 9.61028 97.3224C8.06174 97.6579 6.88348 96.0987 7.55352 94.6629L9.31237 90.894C9.43595 90.6292 9.5 90.3405 9.5 90.0482Z" fill="#E0C221"/>
<path d="M71.5787 11.4503L71.0106 10.7198C69.9888 9.40613 70.925 7.49197 72.5893 7.49197H87.0179C88.5615 7.49197 89.5232 9.1664 88.7455 10.4997L87.2724 13.0249C87.094 13.3308 87 13.6785 87 14.0326V24.4919V33.3777C87 34.5259 87.9645 35.4384 89.1109 35.3747L103.111 34.5969C104.171 34.538 105 33.6614 105 32.6V12.5975C105 12.2027 104.883 11.8166 104.664 11.4881L104.073 10.6014C103.187 9.27226 104.14 7.49197 105.737 7.49197H119.263C120.86 7.49197 121.813 9.27226 120.927 10.6014L120.336 11.4881C120.117 11.8166 120 12.2027 120 12.5975V64.1984C120 64.3931 120.028 64.5867 120.084 64.7731L120.839 67.2901C121.188 68.4534 120.428 69.6568 119.228 69.8415L106.486 71.8018C104.767 72.0662 103.553 70.1626 104.518 68.7157L104.664 68.4958C104.883 68.1673 105 67.7812 105 67.3864V50.1656C105 48.9955 104 48.0753 102.834 48.1725L88.8339 49.3391C87.7973 49.4255 87 50.292 87 51.3322V68.8057C87 69.2505 87.1482 69.6825 87.4213 70.0336L88.682 71.6545C89.5519 72.7729 89.0151 74.4162 87.6527 74.8054L73.97 78.7148C72.3204 79.1861 70.9245 77.4278 71.7577 75.9281C71.9166 75.6421 72 75.3202 72 74.993V12.6782C72 12.2334 71.8518 11.8014 71.5787 11.4503Z" fill="#E0C221"/>
<path d="M139.079 11.4503L138.511 10.7198C137.489 9.40613 138.425 7.49197 140.089 7.49197H152.911C154.575 7.49197 155.511 9.40613 154.489 10.7198L153.921 11.4503C153.648 11.8014 153.5 12.2334 153.5 12.6782V50.3146C153.5 51.4861 154.502 52.4067 155.669 52.3074L175.398 50.6295C176.334 50.55 177.197 51.1324 177.408 52.0473C177.732 53.4538 178.114 55.5901 178 57.492C177.908 59.029 177.324 61.0449 176.912 62.3043C176.673 63.0355 176.012 63.5341 175.246 63.6003L140.033 66.6434C138.382 66.7861 137.284 64.9749 138.173 63.5771L139.187 61.9833C139.392 61.6624 139.5 61.2899 139.5 60.9095V12.6782C139.5 12.2334 139.352 11.8014 139.079 11.4503Z" fill="#E0C221"/>
<path d="M227.235 63.5045H194.733C193.247 63.5045 192.28 61.9412 192.943 60.6115L194.29 57.9136C194.428 57.6363 194.5 57.3306 194.5 57.0207V14.0975C194.5 13.7026 194.383 13.3166 194.164 12.9881L192.573 10.6014C191.687 9.27226 192.64 7.49197 194.237 7.49197H227.131C227.685 7.49197 228.216 7.7197 228.553 8.15931C229.312 9.14759 230.574 11.0892 230.5 12.992C230.432 14.7397 229.278 16.9179 228.562 18.1102C228.224 18.6717 227.609 18.9919 226.954 18.9919H210C208.895 18.9919 208 19.8874 208 20.9919V29.4919C208 30.5965 208.895 31.4919 210 31.4919H219C220.105 31.4919 221 32.3874 221 33.4919V35.017C221 36.1216 220.105 37.017 219 37.017H210C208.895 37.017 208 37.9125 208 39.017V50.5045C208 51.609 208.895 52.5045 210 52.5045H227.206C227.994 52.5045 228.708 52.9654 228.981 53.704C229.446 54.9639 230.071 56.9714 230 58.5045C229.943 59.7306 229.411 61.2928 228.996 62.3419C228.713 63.0605 228.008 63.5045 227.235 63.5045Z" fill="#E0C221"/>
<path d="M313.501 8.1967L311.493 6.99204C310.291 6.27055 308.738 6.97845 308.495 8.35946L306.723 18.3989C306.432 20.0503 308.18 21.3055 309.651 20.5017L311.052 19.7367C311.346 19.5761 311.676 19.4919 312.011 19.4919H320.5C321.605 19.4919 322.5 20.3874 322.5 21.4919V63.5071C322.5 64.1281 322.212 64.7138 321.719 65.0924L320.268 66.2087C318.798 67.3393 319.525 69.688 321.377 69.7909L336.839 70.6507C338.775 70.7584 339.716 68.3245 338.211 67.1017L335.76 65.1095C335.28 64.7199 335.008 64.1306 335.022 63.513L335.957 21.4475C335.981 20.3605 336.869 19.4919 337.956 19.4919H347.298C348.038 19.4919 348.718 19.085 349.035 18.417C349.531 17.3729 350.231 15.7635 350.5 14.4919C350.802 13.0626 350.757 11.1255 350.663 9.73855C350.596 8.73643 349.749 7.99197 348.744 7.99197H333.5L314.582 8.48105C314.202 8.49087 313.827 8.39224 313.501 8.1967Z" fill="#E0C221"/>
<path d="M380.592 7.49174H366.482C364.939 7.49174 363.977 9.16618 364.755 10.4995L366.228 13.0247C366.406 13.3306 366.5 13.6783 366.5 14.0324V70.6633C366.5 71.1937 366.289 71.7024 365.914 72.0775L365.672 72.3199C364.536 73.4553 365.134 75.3983 366.712 75.6987L380.029 78.2354C381.656 78.5452 382.933 76.8573 382.192 75.3763L381.711 74.414C381.572 74.1363 381.5 73.8301 381.5 73.5196V12.2432C381.5 11.7588 381.676 11.2908 381.995 10.9262L382.098 10.8088C383.229 9.51559 382.311 7.49174 380.592 7.49174Z" fill="#E0C221"/>
<path d="M400.1 12.9584L398.4 10.6917C397.411 9.37328 398.352 7.49174 400 7.49174H441.5C442.605 7.49174 443.5 8.38718 443.5 9.49175V20.4917C443.5 21.5963 442.605 22.4917 441.5 22.4917H418.5C417.395 22.4917 416.5 23.3872 416.5 24.4917V38.4917C416.5 39.5963 417.395 40.4917 418.5 40.4917H431.5C432.605 40.4917 433.5 41.3872 433.5 42.4917V53.4917C433.5 54.5963 432.605 55.4917 431.5 55.4917H418.5C417.395 55.4917 416.5 56.3872 416.5 57.4917V72.3281C416.5 73.2922 417.188 74.1191 418.136 74.2947L441.864 78.6888C442.812 78.8643 443.5 79.6912 443.5 80.6554V93.0252C443.5 94.3002 442.323 95.2497 441.077 94.9799L398.402 85.741C396.893 85.4144 396.308 83.5751 397.349 82.4364L399.976 79.5649C400.313 79.1962 400.5 78.7146 400.5 78.215V14.1584C400.5 13.7256 400.36 13.3046 400.1 12.9584Z" fill="#E0C221"/>
<path d="M51.5 102.992V101.992C51.5 100.887 52.3954 99.9917 53.5 99.9917H78.5C79.6046 99.9917 80.5 100.887 80.5 101.992V102.992C80.5 104.096 79.6046 104.992 78.5 104.992H53.5C52.3954 104.992 51.5 104.096 51.5 102.992Z" fill="#E0C221"/>
<path d="M368.5 102.992V101.992C368.5 100.887 369.395 99.9917 370.5 99.9917H399.5C400.605 99.9917 401.5 100.887 401.5 101.992V102.992C401.5 104.096 400.605 104.992 399.5 104.992H370.5C369.395 104.992 368.5 104.096 368.5 102.992Z" fill="#E0C221"/>
<path d="M266.869 44.2505L266.622 34.3703C266.577 32.583 268.721 31.6396 270.009 32.8799L276.745 39.3691C277.995 40.5735 277.223 42.6896 275.491 42.8051L273.346 42.9481C272.805 42.9841 272.302 43.2381 271.952 43.6518L270.395 45.4924C269.207 46.8959 266.915 46.0884 266.869 44.2505Z" fill="#E0C221"/>
<path d="M280 19.4919C280.491 19.9775 280.763 20.7219 280.888 21.5849C281.054 22.7275 283.335 23.5848 283.94 22.6016C283.98 22.5371 284.012 22.4682 284.036 22.3963L286.76 14.2214C287.148 13.0552 286.403 11.8178 285.19 11.6163L279.699 10.7037C278.962 10.5813 278.219 10.8793 277.771 11.4766L275.707 14.2288C274.876 15.3367 275.392 16.9505 276.663 17.5005C277.881 18.0278 279.224 18.7245 280 19.4919Z" fill="#E0C221"/>
<path d="M197.743 63C195.636 63 194.583 61.9467 194.583 59.84V10.86C194.583 8.75333 195.636 7.7 197.743 7.7H225.472C227.052 7.7 227.842 9.01666 227.842 11.65V14.099C227.842 16.7323 227.052 18.049 225.472 18.049H206.749V29.504H223.339C224.919 29.504 225.709 30.8207 225.709 33.454V35.903C225.709 38.5363 224.919 39.853 223.339 39.853H206.749V52.651H225.551C227.131 52.651 227.921 53.9677 227.921 56.601V59.05C227.921 61.6833 227.131 63 225.551 63H197.743ZM269.862 63.632C261.014 63.632 254.457 61.341 250.191 56.759C245.978 52.1243 243.871 44.9353 243.871 35.192C243.871 25.7647 246.083 18.7337 250.507 14.099C254.931 9.41167 261.514 7.068 270.257 7.068C271.995 7.068 273.838 7.19967 275.787 7.463C277.736 7.72633 279.579 8.12133 281.317 8.648C283.055 9.122 284.451 9.70133 285.504 10.386C286.61 11.018 287.163 11.7553 287.163 12.598C287.163 13.3353 286.873 14.3097 286.294 15.521C285.715 16.6797 285.03 17.733 284.24 18.681C283.45 19.5763 282.713 20.024 282.028 20.024C281.712 20.024 281.08 19.8133 280.132 19.392C279.237 18.9707 277.946 18.5493 276.261 18.128C274.628 17.7067 272.548 17.496 270.02 17.496C266.913 17.496 264.332 18.1543 262.278 19.471C260.277 20.7877 258.776 22.7627 257.775 25.396C256.827 28.0293 256.353 31.321 256.353 35.271C256.353 38.2203 256.616 40.8273 257.143 43.092C257.722 45.3567 258.565 47.2527 259.671 48.78C260.83 50.2547 262.252 51.387 263.937 52.177C265.622 52.9143 267.597 53.283 269.862 53.283C271.547 53.283 273.075 53.1777 274.444 52.967C275.866 52.7563 277.551 52.414 279.5 51.94L276.024 57.312V42.697H269.072C267.492 42.697 266.702 41.3803 266.702 38.747V36.219C266.702 33.5857 267.492 32.269 269.072 32.269H285.109C287.216 32.269 288.269 33.3223 288.269 35.429V57.391C288.269 58.7603 287.584 59.8663 286.215 60.709C284.846 61.499 283.16 62.1047 281.159 62.526C279.158 62.9473 277.13 63.237 275.076 63.395C273.022 63.553 271.284 63.632 269.862 63.632Z" fill="#E0C221"/>
<path d="M9.42 6.99999H28.86C35.42 6.99999 40.34 8.76 43.62 12.28C46.9 15.8 48.54 20.96 48.54 27.76V36.04C48.54 42.84 46.9 48 43.62 51.52C40.34 55.04 35.42 56.8 28.86 56.8H22.62V91H9.42V6.99999ZM28.86 44.8C31.02 44.8 32.62 44.2 33.66 43C34.78 41.8 35.34 39.76 35.34 36.88V26.92C35.34 24.04 34.78 22 33.66 20.8C32.62 19.6 31.02 19 28.86 19H22.62V44.8H28.86Z" fill="#E0C221"/>
</g>
<defs>
<clipPath id="clip0_180_121">
<rect width="452" height="121" fill="white"/>
</clipPath>
</defs>
</svg>
